/* XPM */
static char *result[] = {
/* columns rows colors chars-per-pixel */
"64 64 202 2 ",
"   c #0E0E1B",
".  c #0A0918",
"X  c #120E17",
"o  c #13131B",
"O  c #16181D",
"+  c #1C1B1D",
"@  c #1A131B",
"#  c #21171E",
"$  c #231C1D",
"%  c #1C231F",
"&  c #25221E",
"*  c #2D221C",
"=  c #382D1E",
"-  c #231D20",
";  c #341F26",
":  c #1E2121",
">  c #1E2824",
",  c #242422",
"<  c #262B24",
"1  c #292B24",
"2  c #2B2D28",
"3  c #352322",
"4  c #3D2A22",
"5  c #372B23",
"6  c #2C3426",
"7  c #2A3529",
"8  c #2A372A",
"9  c #323325",
"0  c #333927",
"q  c #353E2A",
"w  c #373B28",
"e  c #49361F",
"r  c #422F21",
"t  c #4D3524",
"y  c #56332F",
"u  c #492333",
"i  c #693D33",
"p  c #36432C",
"a  c #3B412B",
"s  c #3D492E",
"d  c #3E4D32",
"f  c #374830",
"g  c #3F5232",
"h  c #434329",
"j  c #484629",
"k  c #5A4A20",
"l  c #44562E",
"z  c #4D572B",
"x  c #4C5B2E",
"c  c #47582F",
"v  c #505A2E",
"b  c #55552D",
"n  c #465631",
"m  c #475A33",
"M  c #4B5D34",
"N  c #475F38",
"B  c #485F38",
"V  c #515D31",
"C  c #674828",
"Z  c #7A5929",
"A  c #7E473B",
"S  c #665425",
"D  c #476037",
"F  c #4D6034",
"G  c #476138",
"H  c #4A6239",
"J  c #526335",
"K  c #556638",
"L  c #576839",
"P  c #586939",
"I  c #586738",
"U  c #7F6424",
"Y  c #787239",
"T  c #7C4242",
"R  c #844B3E",
"E  c #8A4F3E",
"W  c #935B3C",
"Q  c #975E3B",
"!  c #8A5438",
"~  c #9E643B",
"^  c #996436",
"/  c #847A38",
"(  c #896D26",
")  c #A0722A",
"_  c #A46A3A",
"`  c #AB6C3D",
"'  c #A5653C",
"]  c #B56F3E",
"[  c #AB7334",
"{  c #A67336",
"}  c #B4743C",
"|  c #BC743F",
" . c #BD7A3D",
".. c #B67B37",
"X. c #C37B3D",
"o. c #8C3845",
"O. c #814642",
"+. c #844A41",
"@. c #8A4B43",
"#. c #964D4A",
"$. c #974844",
"%. c #9D5348",
"&. c #985844",
"*. c #A45B46",
"=. c #AA5D43",
"-. c #A15B49",
";. c #A45846",
":. c #977F40",
">. c #AD6443",
",. c #AB6848",
"<. c #B06541",
"1. c #B46C43",
"2. c #B86E43",
"3. c #B46D49",
"4. c #B77043",
"5. c #BB7443",
"6. c #BC7843",
"7. c #BB7C4D",
"8. c #B97F53",
"9. c #C37B43",
"0. c #90843D",
"q. c #A98526",
"w. c #B2912D",
"e. c #BE8435",
"r. c #C4833C",
"t. c #CA853E",
"y. c #C98C38",
"u. c #D28E3D",
"i. c #D5893A",
"p. c #C89339",
"a. c #D4923D",
"s. c #D9943C",
"d. c #DA9C3B",
"f. c #D69A37",
"g. c #E19C3C",
"h. c #ED9F3B",
"j. c #DDA737",
"k. c #DAA339",
"l. c #E4AB35",
"z. c #E4A43A",
"x. c #E5AD39",
"c. c #ECAB39",
"v. c #EAA638",
"b. c #F1AC3D",
"n. c #EBB13A",
"m. c #EEB93B",
"M. c #EEB732",
"N. c #F5B536",
"B. c #F5BB35",
"V. c #FCBD36",
"C. c #F2B138",
"Z. c #F6C232",
"A. c #FEC435",
"S. c #FFCB34",
"D. c #FFD333",
"F. c #FFDC32",
"G. c #A19343",
"H. c #B49C49",
"J. c #BD8551",
"K. c #BE8B55",
"L. c #BF9459",
"P. c #B7A646",
"I. c #BEA54C",
"U. c #BFB74D",
"Y. c #CA8540",
"T. c #CC8941",
"R. c #C58348",
"E. c #D18B40",
"W. c #D28645",
"Q. c #DE9843",
"!. c #C18552",
"~. c #C68951",
"^. c #C59256",
"/. c #C69C55",
"(. c #D39656",
"). c #E09940",
"_. c #D9A756",
"`. c #CAB050",
"'. c #D8B758",
"]. c #C5A84D",
"[. c #F2B542",
"{. c #E0AA5B",
"}. c #ECAD57",
"|. c #E4B35E",
" X c #E8B95F",
".X c #E8A345",
"XX c #F5BE60",
"oX c #E9C45B",
"OX c #ECCC5D",
"+X c #E1C25D",
"@X c #F0C75E",
"#X c #EFD05D",
"$X c #FFDD5D",
"%X c #F6D65E",
"&X c #FEE35E",
"*X c #FFEB5F",
"=X c #FFF35F",
"-X c #F2CA60",
";X c #EDE363",
":X c #FEEB60",
">X c #FFF260",
",X c #FFFE62",
/* pixels */
"L L L L L L L L L L L L L L L L L L L L P L H H H H H H H H H H H H H H H H H H H H H H P P H P P L H P K K K J K J J K J J J J ",
"L L L L L L L L L L L L L L L L L L L L L L G G H H H H H H H H H H H H H H H H H H H H P P P P P L P P K K K L L K K J J K K J ",
"L L L L L L L L L L L L L L L L L L L L L L G G H H H H H H H H H H H H H H H H H H H H P P P P L P P P K K K K J K K L J K J J ",
"L L L L L L L L L L L L L L L L L L L L P L G G H H H H H H H H H H H H H H H H H H H H P P P P L P P H K J L K K J J K J J K J ",
"L L L L L L L L L L L L L L L L L L L L P P H H H H H H H H H H H H H H H H H H H H H H P P P P L L L L J L K K J K K K K K J J ",
"L L L L L L L L L L L L L L L L L L L L P P H H H H H H H H H H H H H H H H H H H H H H P P P H L L L L L J K K K K J J J J K J ",
"L L L L L L L L L L L L L L L L L L L L P L H G H H H H H H H H H H H H H H H H H H G G P P P P L L L J L K K K K J K K K J J J ",
"L L L L L L L L L L L L L L L L L L L L P L H H H H H H H H H H H H H H H H H H G G G G P P P P H L L L J K L J J K J K J K J J ",
"L L L L L L L L L L L L L L L L L L L L L L H G H H H H H H H H H H H H H H H H H H H H P P P H P K K K K K K P K K K K J J J J ",
"L L L L L L L L L L L L L L L L L L L L L L H H H H H H H H H H H H H H H H H H H H H H P P P P K K P K K K K J K J J K J K K J ",
"L L L L L L L L L L L L L L L L L L L L L H H H H H H H H H H H H H H H H H H H H H H H P P P P K P L K K K K K K K J J K J J J ",
"L L L L L L L I L L L L L L L L L L L L L L H H H H H H H H H H H H H H H H H H H H H H P P H P K K L P J K K K J K K K J J K J ",
"L L L L L L L P L L L L L L L L L L L L P L H H H H H H H H H H H H H H H H H H H H H H P P H P K K P J J L K K J K K K K K J J ",
"L L L L L L L L L L L L L L I P L L L L P L H H H H H H H H H H H H H H H H H H H H H H P P P P P K P P K K K K K K J J J J K J ",
"L L P I L L L L L L L L L L L L L L L L P L H G H H H H H H H H H H H H H H H H H H H H P P P P K P K K K K K K J P K K K J J J ",
"L L L L L L L L L L L L L L L L L L L L L L H H H H H H H H H G H H H H H H H H H H H H P P P P K P J P K K K P J K J K J K J J ",
"L L L L L L L L L L L L L L L L L L L L P L H H H H H H H H H H H H H H H H H H H H N K L I L K P P K J K K K K J K K K J J J J ",
"L L L L L L L L L L L L L L L L L L L L P L H H H H H H H H H H H H H H H H H H H H G H L L K L J P P P K K K K J K J K J K K J ",
"L L L L L L L L L L L P L L L L L L L L L L H H H N N m 6 , , & , & f N N G H H H H N H L L L K K K K P K K K K K K J J J J J J ",
"P P P P P P P P P P P P P P P P P P P P L L H H g % % < Y U.H.H.P.w.9 > : 8 N G H H N K P I L L P P P J K K K K K J P K K K K J ",
"L L L L L L L L P P P P H T L L L L L L L L f 8 t 0.Y / /.|.{.{._.Q.) U ( S 0 8 N K B H L L K L J P P P P K J K K K J J J K J F ",
"H H H H H H H H H H H H H B B B H H H H H f y B 0.@X#XoX9.=.] ] 1.1.).b.[.p.S k q B P K H K H H H H H H J G H H B H H H F F F D ",
"H H H H H H K H H H H L H H H K H K H H n 2 L.;X_.;.*.=.x.S.A.A.A.A.9.*.-.5.n.m.Z 0 K K H H H H D G G G J H H H H M B F H M F D ",
"K K H K K K B K L H H H H L H K K H H n 2 `.L.-.T.V.N.N.V.S.V.B.A.A.V.N.Z.z.>.%..XU 9 M K H H H J G H H H H H H H H B G M F M D ",
"B B H H H H H H H H H H H H H H B H f t `.!.a.l.N.S.A.A.A.S.u.] B.D.A.A.S.A.c.z.9.E.( 6 N H H H H H H H J H H N G M H B M M B M ",
"B B H H H H H H H H H H H H H H B q d /.(.u.B.z.s.S.A.A.S.s.J.^.5.M.S.V.S.N.u.V.k.W.E.( < N H H H H H H M H G H H H M H F B M H ",
"H H H H H H H H H H H H H H H H q j H.|.X.A.S.5.$.s.D.D.a.,.+X:XK.] N.F.M.,.$.c.F.d.W.).U q n H H H H H K B H H F M B M H M B M ",
"H H H H H H H H H H H H H H H H $ I.XX=.A.S.A.t.%.7.f.y.3.'.=X*X*X8.X.f.T.-.>.n.A.D.a.3.S.5 f G H H H B K B B H G H B H B M M B ",
"H H H H H H B H H H B B H H B H , G. X2.N.A.Z.5.K.:X%.;.oX>X$X$X*X:X!.o._.%X&.c.A.S.u.2.x.5 8 N H H H H M M H H H B B H V M M H ",
"K H H K H H K H H H K H H H B K - G.|.1.B.A.Z.9.J.:X#XOX&X&X$X$X$X*X%XOX:XoX>.c.A.S.a.>.e.,   2 H H H H K H H H B J M B H M B B ",
"H H K H H H K H H H K H K H K H $ q..X3.B.A.A.B.Y.J.>X,X&X$X&X$X&X$X:X,X'.3.j.A.A.A.Q.=...$ . - H K K K H B H H H B M H B B V B ",
"B B B B H H B B H H B H B B B B & q.h.>.A.A.V.D.t.#.:X,X>X>X>X>X>X=X:X,X/.$.Z.S.V.D.s.=.y.* . 2 B B B B G H F B H H B H V V B B ",
"B H H H H H H H H H H B H G G H $ C s.Q.Y.S.S.A.v.R.^.^.^.^.^.^.^.^.^.^.J.a.B.V.D.z.R. .Q $ o < B G H G H H B H B B B H B V B B ",
"H H H H B H B B G N H H B H H H @ u >.s.9.E.B.F.D.C.<.=.<.<.<.` <.>.` ;.t.S.D.D.x.6.` } R # X < H H B H H H H H H H M B M M M B ",
"H H H H H H K B H H H H H G H H , y +.~ z.5.s.x.B.S.Z.B.B.B.B.B.B.B.B.Z.S.S.n.n.5.] ' i R $ o < H H H F H H H H B K B B V B M H ",
"M B V M M B B M B M J V B M V B n 2 C } W z.6.#.Y.S.S.S.S.S.S.S.S.S.S.S.D.c.*.;. .~ #.R # $ : 1 M M B B V V B B B V B B K M M B ",
"B B F H B K B B B H M H H H M H M > t 9.` ^ a.m.u.#.>.A.D.S.S.S.S.S.D.s.;.>.X.r.W R 2.[ . : , , H H J B B B B B B B B B B M M B ",
"H B M B B B B B H M N H M H H M G g 2 C g.E W { r.z.d.5.,.2.2.4.4.5.6.5.X.} W W ' 3.W e , , q f M B B B B H B B B B B B M B M B ",
"M B B M B V B K M B M M M B M F M B a $ ! >.,.@.&.p.y.T.t.u.T.E.T.4.1.` ~ _ W @.a.[ ; O , , n M B M J B M M V K M M K B M B B B ",
"M J M M M M M M M V B M M H M M M M n 1 o C ^ _ &.+.@.p.j.d.d.k.f...[ _ +.Q u.! ^ t o < , 6 n M V M B M M M B V B V V B V V M B ",
"M B M B M M F N F D D F D D N M B B M n < o   y ` [ R o.R R R R T +.T ~ _ Q { * X % 1 1 6 m N M N D F D D F D D B B B B M M M G ",
"B B B B H N D N D D c D D D D M B B B B n 2 , : $ @ - E r.' ' } &.e.4.y @ + # & , , , 9 m N N N m D D m D D D D B M B B B N N N ",
"B M M B M M M m c D F x M M m M M B M M M n 6 $ : : : 3 4 5 4 4 5 4 4 , , : - , , , w M M M M M M M M M x m x F M B M M M M M M ",
"V J V M M J F F J F J F F F J M V V M J M M n s q , , + O + O O + O o , 1 , , , w s c M M J M M F F J F F F J x K V M V F F F M ",
"J J J J J J J J J J J J J J J J J J V J J J M M n q q q 2 - , , , , , $ 1 q q q M M m M V K J J J J J J J J J J J J J J J J J J ",
"V J J J J J J J J J J V V J J J V J J J J J m M M n M n 0 - 2 , 1 1 < , 0 M M m M M m M J V J J J J J J V J J J J F J J J J J J ",
"J J F V J J M J x J x J F F J F F J J J J V M M M M M n M M M M m m M M M M M M M m m M J J J J J J F V F J J F V F J J J F M J ",
"J F J J x J x J J J J F J J J J F V M J J M m M m M M M M M m M M M M M M m M m M M M M J M V F J V F J J J x J J F V J F V J V ",
"F F J F J x J J J x J J F J J x F J J J V J c F m M m M M m M M m M V n m M M M m F x D x J J F F F F F J x J J J J J F J J x J ",
"V F x J J J J x x J x J x J x J F F F F J x x D m M M m M M n M m M M M M M m M m c c D J J x J V J F F J J J x J x J x x J J F ",
"x F J x J x J x J F J F J x J F J x x V J x x D n M c n m m m m c m n M n n m n m M x x J x x J x J V F J x x J x J x J F J x J ",
"J V F J J x J J x J x J x J x J x J J J J x x l c n c n c n c m n m n n n n m n c c l x J J V J J J x V V F J J J x J F J x J x ",
"x J x J x J F x x J x J J J x J V F V J F F m m n M n m c n c c c n n n m m c c n c n M F F F x x J x J x J x x x J x J x J x J ",
"V V V V V V v J V V V V J x V x V v v V V x n l n c n c c m c c m n n n c m m n n n n c v V v J V V v J V V J v V V V V J x V x ",
"V J x V V J x J V V J x x J V V x F V x V v c m c m c c n m c m m c M n c c m c c n c m V V V J V J x J x V x J x J J x x J V V ",
"x x x F x x x x x x x F x x x x F x F x F F m c n n n M m c m c c c c x c c c m m n c m D x x x x x x x x F F x x x x x J x x x ",
"x x x x J x x x x x x x x x x x x x x x x x c m n c c m m c c c m n c m n n c m c c c c x x x x J x x x x x x x x x x x x x x x ",
"x x V V x x V x x F V V x x x x V x x x F x c c m m n n n n c c m c m c c m c n c c m m x x x V x x x x x V x x x x V x J x x x ",
"V V x v v x x v V x v v v V J v v v V v V v x c c n n m c m z c n c c c c c m n x c l x J v v v v v V v V v v v J v v v V v x V ",
"v v v v v v x x x V v v v v v v v v v x v x x l c c c l l c l l n c n n n c n n l l l l V x v v v v v v v v v x v v v v v v v v ",
"x z x x x z x x x z z x x x x x z x x x x z l l l c l l l l l l l l l l l l l l l l l l x z x x x x x x x x x z x x x x x x x x ",
"x x x z x z x z x x x x x x z x x x z x z z l l l l l l l l l l l l l l l l n l l l l l x x x v x x x x x v x x x z x x x x x x ",
"v v x z v v z v z v z v v v x z v z v z z x l g l l l l l l l l l l l l l l l l l l l l z v z v v z z x v z v z z v z v v z z z ",
"z z z z z z z z z z z z z z z z z z z z z z l g l g l l l l s l l l l s l l l l l l l z z z z z z z z z z z z z z z z z z z z z "
};
