/* XPM */
static char *result[] = {
/* columns rows colors chars-per-pixel */
"64 64 81 1 ",
"  c #060607",
". c #0C0C0D",
"X c #111314",
"o c #1E1917",
"O c #151718",
"+ c #17191A",
"@ c #1D1E1E",
"# c #2F1617",
"$ c #2C1619",
"% c #241D1B",
"& c #2B1C1B",
"* c #351518",
"= c #321A1A",
"- c #3D1E1E",
"; c #25201F",
": c #2C211E",
"> c #32251E",
", c #3F201F",
"< c #1D1F20",
"1 c #1F2021",
"2 c #232425",
"3 c #2C2421",
"4 c #262728",
"5 c #272828",
"6 c #2D2E2E",
"7 c #312621",
"8 c #3D2320",
"9 c #3E2926",
"0 c #3C2D2A",
"q c #33312F",
"w c #343535",
"e c #3A3836",
"r c #373838",
"t c #393A3A",
"y c #422523",
"u c #492625",
"i c #442D27",
"p c #4A2927",
"a c #4C2E2A",
"s c #532F2D",
"d c #44312A",
"f c #4E342B",
"g c #53332E",
"h c #5A342F",
"j c #52382F",
"k c #4C3433",
"l c #423B3B",
"z c #5C3631",
"x c #5C3B33",
"c c #523A39",
"v c #663D36",
"b c #6A3F37",
"n c #46413D",
"m c #664036",
"M c #6B4138",
"N c #70443A",
"B c #424342",
"V c #4B4642",
"C c #4C4844",
"Z c #474848",
"A c #494949",
"S c #524A43",
"D c #554F49",
"F c #52504D",
"G c #515151",
"H c #5B5752",
"J c #595857",
"K c #5D5D5C",
"L c #655D56",
"P c #635E59",
"I c #6E645A",
"U c #636363",
"Y c #6A6662",
"T c #6C6967",
"R c #6F6F6F",
"E c #746C65",
"W c #726D68",
"Q c #747271",
"! c #797571",
"~ c #7E7E7E",
"^ c #9C7151",
/* pixels */
"++. .+++++++++++++++++O++++++++++++++++++++++++++++++++++X  ++++",
"662X<6rSSt6tSt116rCCnqBCSSSr666626666w6622222+16662BSSSB+OXX666w",
"GGB+5GG~~KGI~K66GGR~RGI~~~^GGGGZttGGGGGGBtttw+2ZGttT~~~E++++GGGG",
"AAt+6GDRRJAPRJ55ZZURUGIUYYRAAZZVrtAAZAAAlttt6+2VAttKRRRP++++AAAA",
"tt6+6GGGGBtBGB22erZFGGFetttttttttttttttttttt6+1wtttAGGGB++++tttt",
"w65+5AAZZBttAt22qqrBBt666666666q666w666666665+1wtttBAAAl++++6666",
"+O++2tttttttr6@OOO++++Oo++++++++++++++++X+++++<wrtttrtt6++++++++",
"@222566w6666663%%;;oo;&%132@;%+:87%%%:%;%%%%%%16666w6666++3222@+",
"6rAGB2+++++++9ssss-*,ssssssss,-fMNggssss,*iss*$o+++++++++<wtGG6+",
"wAVBt2+777730dxvvh,*-ssvvvvss,=fNNvvvvssp8isi*=77377773:+@wtGG5+",
"BGBt6++ssssjNNNNNNu*-shNNNNss,-gNNNNNNssssssi*-sgsssgssi+@wtGG6+",
"BGBt6++sszzxNNNNNNu*,sgNNNNss,-hNNNNbbzzzzzsp*,sshzzzzzd+<wtGG6+",
"BGBr6++ssvNNNNNNNNu*,sjNNNNss--fNNNMgsNNMNvsi*,ssNNNNNNx+1wtGG6+",
"AUGBw<+ssvNNNNNNNNu*,sjNNNNss-=fNNNbzzNNNNvsa*-ssNNNNNNm+1wtZZ5+",
"P~WGV2+ssvNNNNNNNNu*,sjNNNNss-,fNNNNNNNNNNbsi*,ssNNNNNMx+@wrtr2+",
"K~WGB2+ssvNNNNNNNNu*,sgNNNNsf-,fNNNNNNNNNNvsi*,ssNNNNNNx+@wtBB2+",
"U~WDB2+ssvNNNNNNNNu*-shNNNNss-=fNNNNNNNNNNvsp*,ssNNNNNNx+@wtFG6+",
"K~YGB2+ssvNNNNNNNNu*-ssNNNNss-,hNNNNNNNNNNvsi*-ssNNNNNNx+@wtGG5+",
"BGBt6++ssvNNNNNvss,*-scbNNNss,-fNNNNNNNNNNvsi*-ssNNNNNNx+<wtGG6+",
"GLGAB2+ssvNNNNNvss,-sbbNNNNvh,=fNNNNNNNNNNvsi*,ssNNNNNNx+<wtGG6+",
"U^EGB2+ssvNNNNNvss-=gNNNNNNNNu=fNNNNNNNNNNvsi*-ssNNNNNNx+@rrGG5+",
"K!YAB1+ssvNNNNNvss--fMNNNNNNNy,fvNNNNNNNNNvsa*-ssNNNNNNx+1wtGG6+",
"BJAt6<+ssvNNNNNvss--gNNNNNNNNu,igzNNNNNNNNvsa*,gsNNNNNNx+@wtGG6+",
"BGBt6++ssvNNNNNvss--fNNNNNNNNu=isgNNNNNNNNvsi*,hvMNNNNNx+1wrZZ4+",
"BGBt6<OssvNNNNNvss,-hMNNNNNNNu=isgNNNNNNNNvsi*,mNNNNNNMx+@wttt1@",
"BGBt6X<psvNNNNNvss--gNNNNNNNNu-isgNNNNNNNNvgi*,mNNNNNNNx+@wtrt1+",
"6trt6<<ssvNNNNNvss,-fNNNNNNNNu=isfMNNNNNNNvsi*,mNNNNNNMm+1wrtt11",
"6rtt4<XssvNNNNNvss,=fNNNNNNNNy,isgNNNNNNNNvsi*,mNNNNNNMm+@wrtt1+",
"6ttt6+OssvNNNNNvss--gMNNNNNNNu,isjNNNNNNNNvsi=,mNNNNNNNxO1wtGG6+",
"rZtt6+<ssvNNNNNvss-=gNNNNNNNNu=isjNNNNNNNNvsi=,mNNNNNNNxO1wtGG6+",
"BGBt6++ksvNNNNNvss,-fNNNNNNNNu-isjNNNNNNNNvsi*,mNNNNNNNxO1wtGG5+",
"BGBr6++lsvNNNNNvaayygNNNNNNNNa,iagNNNNNNNNvhi*,mNNNNNNNnO1wtGG6+",
"BGBt6++ssvNNNNMx,-psvNNNNNbbNzsy-pNNNNNNNNbsi*yvNNNNNNNx+1wtGG6+",
"BGBt6++ssvNNNNNv8*uszNNNNNNbva98$9vbNNNNNNvsi*8mNNNNNNNm+@wtGG6+",
"BGBt6++ssvNNNNNvy*pszMNNNNbhs3++O3szNNNNNNvsi*8mNNNNNNMx+1wrGG5+",
"BGBt6++ssvNNNNNx8*pszNNNNNDss06660sgMNNNNNvsa*,vNNNNNNNx+@wrGG6+",
"BGBwwO+ssvNNNNNv7*uszNNNbss&2U~~~W+%asNNNNNNz*8mNNNNNNNxO1wtGG5+",
"BGBt6++ssvNNNNNx9*uszNNNvpi%2HWWEP+%iivNNNNNz*yvNNNNNNNxO1wtGG6+",
"BGBr6++ssvNNNNNx,*pszMNg8oO++BGGGB++++gsvNNNz*,bNNNNNNNx+1wrGG6O",
"tABBw@+ssvNNNNNx>*uszvvf0qq@+rAAZB+@22aaxvNNz*,xvNNNNNNxO1wrGG6+",
"6tAGB2+ssbMNNNNv9*psssi%SW!5+6rrrw+2VZ5%isvMz*,sgNNNNNNxO1wtGG6+",
"wtAGB2+ssvNNNNbz-*usaicqFTW6+6www5+2BAw6iigvz*,sgNNNNMvgO1wtZZ6+",
"6tAGB5+ssvNNNvju**usioG!KZB@+<<<1++1rtGG6o9sp*-ssNNNNvsiO1wrtt1+",
"6tAGB2+ssvNNNxgu**us9+G~KBr++++++++<wrGG6+8ss*,ssNNNNvsi+1wrtt1+",
"BGBt6++ssvNNNxsu**ps9+tGB2O********#++tt2+8fi*-ssNNNNNNxO1wtGG6+",
"BGBr6@+ssvNNNxgu**us9+tGB62=*******#32tt2+8si*-ssNNNNNNxO1wrGG6+",
"6r6@+++ssvNNNxgp**zNsO6rAJG2O9gu*&+2ZGrr2+8si*,ssNNNNvgd+1wtGG5+",
"6t6++++ssvNNNxsu**zNj+66tAGBtki9&3qwAGwq;o8fi*,ssNNNMvgqO1wtGG6+",
"6t6++++ssvNNNxgu**zNh$:<6tBRRl;;@6AVBB11%*ysi*,ssNNNNvsi+@wtGG6+",
"wBw1<++ssvNNNxgu**zNh->o2qwQ!Aq2<6ABww@o=-asi*-ssNNNNvsi+@wtAA5+",
"lGBw6++ssvNNNxgu**zNva9=&o@BVUQJwrtr2@*=svzsi*,ssNNNNvsi+<wtrt2+",
"BGBt6++ssvNNNxsu**gvvzd->%%wwJTJwww6%o,,hvvsa*,ssNNNNvsi+<wett2+",
"BGBt6++ssbNbNxgp**usxNmsi=*o<222<<@%**ssssssa*-ssNNNNvsi+@wttt2+",
"BGBt6++ssbNDNxgu**uszNNsi-*++++++++@=*ssssssi*-ssNNNNvsi+1wttt2+",
"6t6++++ssssssssp**usssssssssssssssssssssssssi*8gsssssssi+@wtrt2+",
"6t6++++ssssssssu**usssafssssssssssssssssssssi*-dsssssssi+1wttt1+",
"+++O++++$OO+++++++++++++++++++++++O+++++1+++++++++++++++++++++++",
"<2<O<562246622211@@@1@1@@221@<<22222222211111111@@11@1@1@@++1@11",
"tAt<wRRAAURLAAABwwwwwwwwtAAwwwwtAAAAAAZAAABwrZBrwwwwwwwww6@+wwBA",
"BAr<wRRAAT!LAAABwwwwwwwwBAAwwwwtAAAAAAAAAABttZBrwwwwwtBtw6@+trZA",
"rt6<<66tlFHGttt6@@@11@@@2221<<26ttrtttrtttrtttr111@@@tGB@@++trtt",
"tt6O+++rtAGGttt6++++++++++++++@6ttttttttttttrrw1O++++rGB++++tttt",
"++++++++<124+++++++++++++++++++++++++++++++++++++++++<21++++++@+",
"++++++++++++++++++++++++++++++++++++++++++++++++++++++++++++++++"
};
