/* XPM */
static char *result[] = {
/* columns rows colors chars-per-pixel */
"64 64 104 2 ",
"   c #060607",
".  c #0D0B0D",
"X  c #130F0E",
"o  c #160C10",
"O  c #1E0F15",
"+  c #0F1112",
"@  c #131212",
"#  c #1A1311",
"$  c #1F1814",
"%  c #191618",
"&  c #17191A",
"*  c #1C1E1E",
"=  c #251216",
"-  c #2D1317",
";  c #221915",
":  c #2B1917",
">  c #251D1A",
",  c #291D19",
"<  c #351518",
"1  c #24201D",
"2  c #2D211B",
"3  c #33251E",
"4  c #1F2121",
"5  c #232425",
"6  c #2B2522",
"7  c #2A2827",
"8  c #272828",
"9  c #2C2C2C",
"0  c #342521",
"q  c #392621",
"w  c #372821",
"e  c #3D2C24",
"r  c #2F2F30",
"t  c #343535",
"y  c #393A3A",
"u  c #442D25",
"i  c #472D28",
"p  c #4C2E2A",
"a  c #433126",
"s  c #443129",
"d  c #4C332B",
"f  c #4F392C",
"g  c #54372E",
"h  c #52392E",
"j  c #463B35",
"k  c #423E39",
"l  c #483F3A",
"z  c #573E31",
"x  c #5B3D32",
"c  c #503B3D",
"v  c #4A433F",
"b  c #5A4131",
"n  c #5A493D",
"m  c #614336",
"M  c #654937",
"N  c #68473A",
"B  c #6B4B3A",
"V  c #724F3E",
"C  c #6F513B",
"Z  c #73513E",
"A  c #424242",
"S  c #4A4643",
"D  c #4B4945",
"F  c #474848",
"G  c #4A4A49",
"H  c #5E4D41",
"J  c #504D4A",
"K  c #53504D",
"L  c #515151",
"P  c #5B5753",
"I  c #5E5954",
"U  c #5C5C5B",
"Y  c #734E40",
"T  c #695545",
"R  c #6F5D4E",
"E  c #755340",
"W  c #7B5543",
"Q  c #7E5C42",
"!  c #605955",
"~  c #6C5D51",
"^  c #635E5A",
"/  c #64615E",
"(  c #776354",
")  c #7F6350",
"_  c #7A685B",
"`  c #646363",
"'  c #696563",
"]  c #6C6967",
"[  c #6F6F6F",
"{  c #746C65",
"}  c #726D68",
"|  c #796F68",
" . c #77726D",
".. c #7D736C",
"X. c #797571",
"o. c #7F7B77",
"O. c #7E7E7E",
"+. c #815A46",
"@. c #8E654B",
"#. c #9C7151",
"$. c #866F61",
"%. c #89786B",
"&. c #8E8075",
"*. c #868686",
/* pixels */
"& & .     & & & & & & & & & & & & & & & & & & & & & & & & & & & & & & & & & & & & & & & & & & & & & & & & & & & & & &     . & & ",
"5 5 & .   5 5 r r 9 5 9 9 9 4 & 4 5 5 t 9 5 5 9 t 9 9 9 5 5 5 5 * & 5 5 5 5 5 5 5 * & & & & & * 5 5 5 & 8 r r r 9 4 &     + 5 5 ",
"A A t * + A A U ` U A K ` U t & t A L ] ] A G ` ` ] ] U A A A A y 9 t A A G A A A t r r r 5 * 5 y A y r F ] ] ` U y & @ + 5 S A ",
"L L y 5 & L L ] X.] L U X.] A & y L U X.X.L P } X.X.X.] L L P G A y y L L L L L L A y y y r * 5 A L A y G X.X.X. .S & & & 8 L L ",
"A A t * & J L P P J A A P K t & 9 A F P P L L D F D D A A A A A y y y A A A A A A y y y y r * 4 t A y y A P I P L t & & & 5 y A ",
"t t 9 * & G G F G A t t G A 9 & 9 t y G G G G y t t t t t t t t t t t t t t t t t t t t t 9 * * r y t t y G G G A 9 * & & 5 t t ",
"5 5 * & & t t r 9 9 5 5 t r 4 & 5 5 8 r 9 r 9 5 5 5 5 5 5 5 5 5 5 5 5 5 5 5 5 5 5 5 5 5 5 * & * r y r 9 9 r r 9 9 7 9 & & * 5 5 ",
"& & & & & 9 9 * & & & & 9 5 & & & & & & & & % # & & & & & & & & & % & & & & & & & & & & & & & * 9 y r 9 5 & & & & 2 9 & & & & & ",
"9 y r 9 9 & & 0 e e u 0 & & O O - < < < < < < < < < < < < < < < < < < < < < < < < < < < < , = % & & & & 1 e e e w 1 & 9 9 t L L ",
"r y r 9 8 & & 6 e e u 0 & & O O - < < < < < < < < < < < < < < < < < < < < < < < < < < < < < = % & & & & 1 a e u u 1 & 9 8 t L L ",
"y G y 5 * 0 0 h b m m g 0 2 o . O = = = = = = = = = = = = = = - = = = = = = = = - = = = = = O o . . , 0 s b m b x u 3 2 4 r L L ",
"A L A 5 & e u m E Y E m e 0 #   o O O O O O O O O O O O O O O O O O O O O O O O O O O O O O O o     1 e h E Y Y N d e 2 & 9 L L ",
"A L A 5 & e e m Y W @.W e 0 #   . . . . . . . .   . . . . . . . . . . . . . . . . . . . . . .       2 u m @.@.V B d a 2 & 9 L L ",
"A P G 8 & e q x N +.#.+.e e % X X X X X o X X # o o o o X X X X X o X X X o X X o o X X X X X X + X 2 e B #.#.N m i e 1 & 9 G G ",
"K { U 9 * > > u d W #.Q e e 3 3 3 3 3 3 3 3 3 3 3 3 3 3 3 3 3 3 3 3 q 3 , 0 3 3 < 0 3 0 3 3 3 3 3 3 w u B #.#.d d w * 2 * 9 F y ",
"` O.U y 8 & & 0 e B #.Q p e e u u u u 3 u i 3 u u u 3 u u u u a u e u e u u e e e u e e u u u u e e u e B #.#.e w > & 8 9 r y y ",
"/ O.} D A 5 & 0 e h b C Q Q Q Q Q Q Q Q Q Q Q +.Q Q +.Q Q +.Q Q +.Q Q Q Q Q Q +.Q Q +.Q Q Q Q Q +.+.+.+.Z b m e w 1 & 9 y A L A ",
"/ O.} P L 5 & 0 e u p b #.#.#.#.#.#.#.#.#.#.#.#.#.#.#.#.#.#.#.#.#.#.#.#.#.#.#.#.#.#.#.#.#.#.#.#.#.#.#.#.Q a u e 3 1 & 7 y v L L ",
"G / U F A 5 & 0 e z m T &.%._ +.+.+.+.+.+.+.+.+.+.+.+.Q +.+.+.+.+.+.+.+.+.+.Q +.+.+.+.+.+.+.+.+.+.Q $.&._ b h u i 1 $ 9 y A L L ",
"A L A y y & & 6 e b C R *.%.~ C C C C C C C C C C C C C C C C C C C C C C C C C C C C C C C C C C C ..*...Z B w 3 1 & 9 y A L L ",
"L [ / G G 4 & % # 0 u s c v s i a i a a i s s a u u a a u a a a i u u u u u u u a u a u a a u a a a j v j a e # # @ & 8 y A L L ",
"` &.{ I L 5 & .   = 2 3 3 3 w w 3 2 2 2 2 2 2 2 2 2 2 2 2 2 2 2 3 2 2 2 2 2 2 2 2 2 2 3 2 2 2 2 3 3 3 q 3 2 ,     . & 9 t A L L ",
"L [ / D F 4 & .   ; 2 e h z B B h 2 ; ; ; ; $ $ $ $ $ $ ; ; $ $ $ ; $ $ ; ; $ $ $ $ $ $ $ 2 3 3 d h f x a 3 3     . & 8 y A L L ",
"A L A y y & & .   ; 2 i V +.#.#.B 2 ;                                                     # 2 3 b Z Z Z m u 3     . & 8 y A L L ",
"A L A y y & & .   . @ 1 i h Z @.m 2 ;                                                     # 2 3 b C z s w $ #     . & 9 t A F A ",
"A L A y y & & .       X 3 w x C f 2 $                                                     # 2 3 b C f 2 $         . & 8 y y y t ",
"t A y y y & & .       o 2 q g b e 2 ; # # # # # # # # # # # # # # # # # # # # # # # # # # $ 2 3 g b e 2 $         . & 9 y y y y ",
"r y y y y & & .       o 2 , 3 2 2 3 2 2 2 2 2 1 2 2 2 2 2 2 , 2 2 2 2 2 2 2 2 2 2 2 2 1 2 2 2 2 , 2 2 2 $         . & 9 y y y y ",
"r y y y y & & .       # 2 3 w s g b M ` ` b b b b b b b b b b b b b b b b b b b b b b b b n ! / H b s 2 $         . & 9 y A F G ",
"r y y y y & & .       o : 3 g h M C ( *.&.C C C C C C C C C C C C C C C C C C C C C C C B ( %.%.~ B h 2 $         . & 8 t A L L ",
"t A y y y & & .       X ; ; w s h b n / ` b b b b b b b b b b b b b b b b b b b b b b b b n ! ! n b w ; @         . & 9 y A L L ",
"A L A y y & & .           . > 2 2 2 3 2 1 2 1 3 2 2 2 2 2 2 : 2 , , 2 2 2 2 2 2 2 2 2 2 2 1 2 2 2 2 +             . & 8 y A L L ",
"A L A y y & & .           . : 2 3 a e 3 3 2 2 $ # # # # # # # # # # # # # # # # # , 2 3 3 3 3 3 2 2 X             . & 7 y A L L ",
"A K A y y & & .           X ; 2 d f f a e 2 , .                                   $ 2 3 u u u e 2 2 X             . & 9 y A L L ",
"A L A y y & & .           . ; : 3 g a e e 2 , .                                   $ 2 3 3 e e 3 , ; X             . & 7 t A L L ",
"A L A y y & & .                 $ 2 3 e a ; , .                                   $ 2 3 a u 3 ; o                 . & 9 y A L L ",
"A L A y y & & .                 # ; : 3 3 2 2 $ # @ # # # # # @ # # # # # # # # # ; 2 3 3 3 : o .                 . & 9 y A L L ",
"A G A y y & & .                     X 2 2 2 2 2 2 2 2 2 2 2 2 2 2 2 2 2 2 2 2 2 2 1 2 2 2 : X                     . & 8 y A L L ",
"A L A y y % & .                     X : 1 2 2 2 2 2 $ $ $ $ $ $ $ $ $ $ $ $ $ 1 , 2 2 2 : ; .                     . & 9 y A L L ",
"A L A y y & & .                     . ; $ 2 2 ; $ .                           $ ; , 2 , ; # .                     . & 8 y A L L ",
"y F A A A * & .                     . # # 2 ; # @                             # # $ 2 $ # o .                     . & 8 y A L L ",
"r y G L L 5 & .                           $ ; .                                   # $ X                           . & 8 y A L L ",
"r y F L L 5 & .                           O O .                                   # ; X                           . & 9 t A L L ",
"9 y G L L 5 & .                                                                                                   . & 9 y y y y ",
"9 y F L L 5 & .                                                                                                   . & 9 y y y y ",
"A L A y y & & .                                                                                                   . & 8 y A L L ",
"y G A t t & & +                                                                                                   . & 9 y A L L ",
"r y t 4 * & & .                                                                                                   . & 8 y A L L ",
"r y 9 4 & & & .                                                                                                   . & 8 y A L L ",
"r y r * & & & .                                                                                                   . & 9 y A L L ",
"r y r * & & & .                                                                                                   . & 9 y A L L ",
"A L A y y & & .                                                                                                   . & 8 y y y y ",
"A L A y y & & .                                                                                                   . & 9 y y y y ",
"A L A y y & & .                                                                                                   . & 8 y t y y ",
"k L A y t & & .                                                                                                   . & 9 y y y y ",
"r A t 4 * & & .                                                                                                   . & 8 y y y y ",
"8 t 8 * & & & + . . . . . . . . . . . . + . + . . . . + . . . . . . . . . . . . . . . . . . . + . . . . . . . + . + & 7 t t t t ",
"* 4 & & & & & & & & & & & & & & & & & & & & & & & & & & & & & & & & & & & & & & & & & & & & & & & & & & & & & & & & & & * * * * ",
"& & & & & & & & & & & & & & & & & & & & & & & & & & & & & & & & & & & & & & & & & & & & & & & & & & & & & & & & & & & & & & & & ",
"A L A 5 &  .O.` L ` O.} L L L L A y y y t y y y y A L F y y y y F L L L L L L L L L L F y y F G y y y y y y y y y y y 8 & 5 y y ",
"A L A 4 &  .O.U L ` O.} L L L L A y y y t y y y y L L F y y y y G L L L L L L L L L L F y y F F y y y y y y y y y y y 9 & 5 y y ",
"y y r * & & & r y A L L y y y y 8 & & & & & & & & & & & & & & * t y y y y y y y y y y y y y y t 4 & & & & & 4 L G r & & & 5 y y ",
"t t 9 * & & & 9 t y F F t t t t 4 & & & & & & & & & & & & & & * r t t t t t t t t t t y t t y r 4 & & & & & 8 G A r & & & 4 t t ",
"* * * * & & & * * 5 5 5 * * * * & & & & & & & & & & & & & & & & * * * * * * * * * * * * * * 4 * * & & & & & * 4 5 4 & & & & * * "
};
