/* XPM */
static char *result[] = {
/* columns rows colors chars-per-pixel */
"64 64 198 2 ",
"   c #41542C",
".  c #41542D",
"X  c #42542C",
"o  c #42552D",
"O  c #43552D",
"+  c #42542E",
"@  c #43562E",
"#  c #44552C",
"$  c #46562D",
"%  c #44562E",
"&  c #45572E",
"*  c #44572F",
"=  c #45572F",
"-  c #4C572B",
";  c #4D572B",
":  c #4E572B",
">  c #47582F",
",  c #49592D",
"<  c #4A592D",
"1  c #4A5A2D",
"2  c #4B5A2D",
"3  c #495B2F",
"4  c #4E582D",
"5  c #4C5A2D",
"6  c #4D5A2D",
"7  c #4D5B2F",
"8  c #4F5A2E",
"9  c #4E5B2F",
"0  c #4F5B2F",
"q  c #4A5C2F",
"w  c #50592D",
"e  c #51592D",
"r  c #505A2E",
"t  c #515A2E",
"y  c #505B2F",
"u  c #515B2F",
"i  c #525B2F",
"p  c #465631",
"a  c #465731",
"s  c #475731",
"d  c #465831",
"f  c #475831",
"g  c #475832",
"h  c #455F36",
"j  c #465F36",
"k  c #475F36",
"l  c #475F37",
"z  c #485931",
"x  c #495931",
"c  c #485932",
"v  c #495B32",
"b  c #485A33",
"n  c #495B33",
"m  c #4A5C30",
"M  c #4B5D30",
"N  c #4A5C33",
"B  c #4F5C31",
"V  c #4C5E30",
"C  c #4D5E31",
"Z  c #4E5F31",
"A  c #4E5F32",
"S  c #495B34",
"D  c #485A35",
"F  c #495B35",
"G  c #495C35",
"H  c #4A5C34",
"J  c #4B5D34",
"K  c #4A5C35",
"L  c #4B5D35",
"P  c #4B5E35",
"I  c #4B5D36",
"U  c #485E36",
"Y  c #485F36",
"T  c #495F36",
"R  c #495F37",
"E  c #4B5E36",
"W  c #4A5F36",
"Q  c #4B5F36",
"!  c #4E5F35",
"~  c #4C5D36",
"^  c #4C5E36",
"/  c #4D5E36",
"(  c #4D5F36",
")  c #4D5E37",
"_  c #4C5F37",
"`  c #4D5F37",
"'  c #4E5F36",
"]  c #4E5F37",
"[  c #4F5F37",
"{  c #515C31",
"}  c #505D31",
"|  c #525D31",
" . c #515E31",
".. c #535E31",
"X. c #466037",
"o. c #476037",
"O. c #4F6031",
"+. c #4F6032",
"@. c #4F6033",
"#. c #486036",
"$. c #486037",
"%. c #496037",
"&. c #4A6036",
"*. c #4A6037",
"=. c #4B6037",
"-. c #4A6137",
";. c #4B6137",
":. c #4E6034",
">. c #4F6034",
",. c #4E6035",
"<. c #4C6037",
"1. c #4E6037",
"2. c #476138",
"3. c #476039",
"4. c #486038",
"5. c #486138",
"6. c #496138",
"7. c #486139",
"8. c #496139",
"9. c #4A6138",
"0. c #4B6138",
"q. c #486239",
"w. c #496239",
"e. c #4A6238",
"r. c #4B6238",
"t. c #4A6239",
"y. c #4B6239",
"u. c #4B6339",
"i. c #4C6138",
"p. c #4D6039",
"a. c #4E6139",
"s. c #4C6339",
"d. c #4D6339",
"f. c #4F6239",
"g. c #4E6339",
"h. c #4C603A",
"j. c #4D613A",
"k. c #4F613A",
"l. c #4C623A",
"z. c #4D623A",
"x. c #4E623A",
"c. c #4F623A",
"v. c #4F633A",
"b. c #506132",
"n. c #506133",
"m. c #516233",
"M. c #506134",
"N. c #516234",
"B. c #506235",
"V. c #516335",
"C. c #526234",
"Z. c #526334",
"A. c #536334",
"S. c #526335",
"D. c #536335",
"F. c #516336",
"G. c #526336",
"H. c #536434",
"J. c #536435",
"K. c #516437",
"L. c #526436",
"P. c #536436",
"I. c #526437",
"U. c #536437",
"Y. c #536537",
"T. c #546535",
"R. c #546436",
"E. c #546536",
"W. c #546537",
"Q. c #556537",
"!. c #556637",
"~. c #566637",
"^. c #506139",
"/. c #516139",
"(. c #50623A",
"). c #51623A",
"_. c #51633A",
"`. c #526538",
"'. c #536638",
"]. c #536739",
"[. c #546538",
"{. c #546638",
"}. c #556638",
"|. c #556738",
" X c #546739",
".X c #556739",
"XX c #566638",
"oX c #566738",
"OX c #576738",
"+X c #566739",
"@X c #586738",
"#X c #576838",
"$X c #566839",
"%X c #576839",
"&X c #586838",
"*X c #596938",
"=X c #586939",
"-X c #596A39",
/* pixels */
"%X%X%X%X%X%X%X%X%X%X%X%X%X%X%X%X%X%X%X%X=X.Xt.w.t.t.t.t.t.t.t.t.t.t.t.t.t.t.t.t.t.t.7.d.=XOXoXoXoXoXoXoX}.}.}.}.W.W.W.W.P.P.P.S.",
"%X%X%X%X%X%X%X%X%X%X%X%X%X%X%X%X%X%X%X%X=X.Xt.w.t.t.t.t.t.t.t.t.t.t.t.t.t.t.t.t.t.t.7.d.=XOXoXoXoXoXoXoX}.}.}.}.W.W.W.W.P.P.P.S.",
"%X%X%X%X%X%X%X%X%X%X%X%X%X%X%X%X%X%X%X%X=X.Xt.w.t.t.t.t.t.t.t.t.t.t.t.t.t.t.t.t.t.t.7.d.=XOXoXoXoXoXoXoX}.}.}.}.W.W.W.W.P.P.P.S.",
"%X%X%X%X%X%X%X%X%X%X%X%X%X%X%X%X%X%X%X%X=X.Xt.w.t.t.t.t.t.t.t.t.t.t.t.t.t.t.t.t.t.t.7.d.=XOXoXoXoXoXoXoX}.}.}.}.W.W.W.W.P.P.P.S.",
"%X%X%X%X%X%X%X%X%X%X%X%X%X%X%X%X%X%X%X%X=X.Xt.w.t.t.t.t.t.t.t.t.t.t.t.t.t.t.t.t.t.t.7.d.=XOXoXoXoXoXoXoX}.}.}.}.W.W.W.W.P.P.P.S.",
"%X%X%X%X%X%X%X%X%X%X%X%X%X%X%X%X%X%X%X%X=X.Xt.w.t.t.t.t.t.t.t.t.t.t.t.t.t.t.t.t.t.t.7.d.=XOXoXoXoXoXoXoX}.}.}.}.W.W.W.W.P.P.P.S.",
"%X%X%X%X%X%X%X%X%X%X%X%X%X%X%X%X%X%X%X%X=X.Xt.w.t.t.t.t.t.t.t.t.t.t.t.t.t.t.t.t.t.t.7.d.=XOXoXoXoXoXoXoX}.}.}.}.W.W.W.W.P.P.P.S.",
"%X%X%X%X%X%X%X%X%X%X%X%X%X%X%X%X%X%X%X%X=X.Xt.w.t.t.t.t.t.t.t.t.t.t.t.t.t.t.t.t.t.t.7.d.=XOXoXoXoXoXoXoX}.}.}.}.W.W.W.W.P.P.P.S.",
"%X%X%X%X%X%X%X%X%X%X%X%X%X%X%X%X%X%X%X%X=X.Xt.w.t.t.t.t.t.t.t.t.t.t.t.t.t.t.t.t.t.t.7.d.=XOXoXoXoXoXoXoX}.}.}.}.W.W.W.W.P.P.P.S.",
"%X%X%X%X%X%X%X%X%X%X%X%X%X%X%X%X%X%X%X%X=X.Xt.w.t.t.t.t.t.t.t.t.t.t.t.t.t.t.t.t.t.t.7.d.=XOXoXoXoXoXoXoX}.}.}.}.W.W.W.W.P.P.P.S.",
"%X%X%X%X%X%X%X%X%X%X%X%X%X%X%X%X%X%X%X%X=X.Xt.w.t.t.t.t.t.t.t.t.t.t.t.t.t.t.t.t.t.t.7.d.=XOXoXoXoXoXoXoX}.}.}.}.W.W.W.W.P.P.P.S.",
"%X%X%X%X%X%X%X%X%X%X%X%X%X%X%X%X%X%X%X%X=X.Xt.w.t.t.t.t.t.t.t.t.t.t.t.t.t.t.t.t.t.t.7.d.=XOXoXoXoXoXoXoX}.}.}.}.W.W.W.W.P.P.P.S.",
"%X%X%X%X%X%X%X%X%X%X%X%X%X%X%X%X%X%X%X%X=X.Xt.w.t.t.t.t.t.t.t.t.t.t.t.t.t.t.t.t.t.t.7.d.=XOXoXoXoXoXoXoX}.}.}.}.W.W.W.W.P.P.P.S.",
"%X%X%X%X%X%X%X%X%X%X%X%X%X%X%X%X%X%X%X%X=X.Xt.w.t.t.t.t.t.t.t.t.t.t.t.t.t.t.t.t.t.t.7.d.=XOXoXoXoXoXoXoX}.}.}.}.W.W.W.W.P.P.P.S.",
"%X%X%X%X%X%X%X%X%X%X%X%X%X%X%X%X%X%X%X%X=X.Xt.w.t.t.t.t.t.t.t.t.t.t.t.t.t.t.t.t.t.t.7.d.=XOXoXoXoXoXoXoX}.}.}.}.W.W.W.W.P.P.P.S.",
"%X%X%X%X%X%X%X%X%X%X%X%X%X%X%X%X%X%X%X%X=X.Xt.w.t.t.t.t.t.t.t.t.t.t.t.t.t.t.t.t.t.t.7.d.=XOXoXoXoXoXoXoX}.}.}.}.W.W.W.W.P.P.P.S.",
"%X%X%X%X%X%X%X%X%X%X%X%X%X%X%X%X%X%X%X%X=X.Xt.w.t.t.t.t.t.t.t.t.t.t.t.t.t.t.t.t.t.t.7.d.=XOXoXoXoXoXoXoX}.}.}.}.W.W.W.W.P.P.P.S.",
"%X%X%X%X%X%X%X%X%X%X%X%X%X%X%X%X%X%X%X%X=X.Xt.w.t.t.t.t.t.t.t.t.t.t.t.t.t.t.t.t.t.t.7.d.=XOXoXoXoXoXoXoX}.}.}.}.W.W.W.W.P.P.P.S.",
"%X%X%X%X%X%X%X%X%X%X%X%X%X%X%X%X%X%X%X%X=X.Xt.w.t.t.t.t.t.t.t.t.t.t.t.t.t.t.t.t.t.t.7.d.=XOXoXoXoXoXoXoX}.}.}.}.W.W.W.W.P.P.P.S.",
"=X=X=X=X=X=X=X=X=X=X=X=X=X=X=X=X=X=X=X=X-X+X8.7.8.8.8.8.8.8.8.8.8.8.8.8.8.8.8.8.8.8.3.s.-X@XOXOXOXOXOXOX}.XXXXXXQ.Q.!.Q.R.E.E.D.",
"$X$X$X$X$X$X$X$X$X$X$X$X$X$X$X$X$X$X$X$X%X Xy.t.y.y.y.y.y.y.y.y.y.y.y.y.y.y.y.y.y.y.w.g.%XoX|.|.|.|.|.|.}.{.{.{.Y.Y.Y.Y.L.P.L.V.",
"t.t.t.t.t.t.t.t.t.t.t.t.t.t.t.t.t.t.t.t.8.s.$X%X$X$X$X$X$X$X$X$X$X$X$X$X$X$X$X$X$X$X=X].w.(.c.t.y.y.y.y.^.i.6.9.6.<.` $.Q / ^ Y ",
"x.x.x.x.x.x.x.x.x.x.x.x.x.x.x.x.x.x.x.x.h.v.#X&X#X#X#X#X#X#X#X#X#X#X#X#X#X#X#X#X#X#X*X|.j.).z.q.w.w.w.w.^.0.2.5.2.=._ X.W / E j ",
"(.(.(.(.(.(.(.(.(.(.(.(.(.(.(.(.(.(.(.(.k._.oXoXoXoXoXoXoXoXoXoXoXoXoXoXoXoXoXoXoXoX#X}.(.(.l.w.t.t.t.t.^.i.5.6.5.<.` o.Q / ^ k ",
"t.t.t.t.t.t.t.t.t.t.t.t.t.t.t.t.t.t.t.t.8.s.oXOXoXoXoXoXoXoXoXoXoXoXoXoXoXoXoXoXoXoX&X'.q.w.t.t.t.t.t.t.^.i.5.6.5.<.` o.Q / ^ k ",
"t.t.t.t.t.t.t.t.t.t.t.t.t.t.t.t.t.t.t.t.8.s.oXOXoXoXoXoXoXoXoXoXoXoXoXoXoXoXoXoXoXoX&X'.w.t.t.t.t.t.t.t.^.i.5.6.5.<.` o.Q / ^ k ",
"t.t.t.t.t.t.t.t.t.t.t.t.t.t.t.t.t.t.t.t.8.s.oXOXoXoXoXoXoXoXoXoXoXoXoXoXoXoXoXoXoXoX&X'.w.t.t.t.t.t.t.t.^.i.5.6.5.<.` o.Q / ^ k ",
"t.t.t.t.t.t.t.t.t.t.t.t.t.t.t.t.t.t.t.t.8.s.oXOXoXoXoXoXoXoXoXoXoXoXoXoXoXoXoXoXoXoX&X'.w.t.t.t.t.t.t.t.^.i.5.6.5.<.` o.Q / ^ k ",
"w.w.w.w.w.w.w.w.w.w.w.w.w.w.w.w.w.w.w.w.7.u.oXOXoXoXoXoXoXoXoXoXoXoXoXoXoXoXoXoXoXoX&X'.q.w.w.w.w.w.w.w.^.i.5.6.5.<.` o.Q / ^ k ",
"a.a.a.a.a.a.a.a.a.a.a.a.a.a.a.a.a.a.a.a.p.f.}.XX}.}.}.}.}.}.}.}.}.}.}.}.}.}.}.}.}.}.OX[.a.a.a.a.a.a.a.a./.i.5.6.5.<.` o.Q / ^ k ",
"a.a.a.a.a.a.a.a.a.a.a.a.a.a.a.a.a.a.a.a.p.f.}.}.}.}.}.}.}.}.}.}.}.}.}.}.}.}.}.}.}.}.oX[.a.a.a.a.a.a.a.a.a.9.5.6.5.<.` o.Q / ^ k ",
"6.6.6.6.6.6.6.6.6.6.6.6.6.6.6.6.6.6.6.6.4.r.}.XX}.}.}.}.}.}.}.}.}.}.}.}.}.}.}.}.}.}.OX`.2.6.6.6.6.6.6.6.5.6.6.6.5.<.` o.Q / ^ k ",
"6.6.6.6.6.6.6.6.6.6.6.6.6.6.6.6.6.6.6.6.4.r.}.XX}.}.}.}.}.}.}.}.}.}.}.}.}.}.}.}.}.}.OX`.5.6.6.6.6.6.6.6.6.6.6.6.5.<.` o.Q / ^ k ",
"6.6.6.6.6.6.6.6.6.6.6.6.6.6.6.6.6.6.6.6.5.e.}.XX}.}.}.}.}.}.}.}.}.}.}.}.}.}.}.}.}.}.oX`.5.6.6.6.6.6.6.6.6.6.6.6.5.<.` o.Q / ^ k ",
"6.6.6.6.6.6.6.6.6.6.6.6.6.6.6.6.6.6.6.6.5.e.W.Q.W.W.W.W.W.W.W.W.W.W.W.W.W.W.W.W.W.W.!.I.5.6.6.6.6.6.6.6.6.6.6.6.5.<.` o.Q / ^ k ",
"] ] ] ] ] ] ] ] ] ] ] ] ] ] ] ] ] ] ] ] ) 1.W.W.W.W.W.W.W.W.W.W.W.W.W.W.W.W.W.W.W.W.!.U.` ] ] ] ] ] ] ] ] ] ] ] ` [ ` o.Q / ^ k ",
"*.*.*.*.*.*.*.*.*.*.*.*.*.*.*.*.*.*.*.*.R ;.W.Q.W.W.W.W.W.W.W.W.W.W.W.W.W.W.W.W.W.W.~.I.%.*.*.*.*.*.*.*.*.*.*.*.*.*.%.o.E / ^ k ",
"$.$.$.$.$.$.$.$.$.$.$.$.$.$.$.$.$.$.$.$.l -.W.Q.W.W.W.W.W.W.W.W.W.W.W.W.W.W.W.W.W.W.~.K.o.$.$.$.$.$.$.$.$.$.$.$.$.$.$.%.E / ^ k ",
"^ ^ ^ ^ ^ ^ ^ ^ ^ ^ ^ ^ ^ ^ ^ ^ ^ ^ ^ ^ I ( P.P.P.P.P.P.P.P.P.P.P.P.P.P.P.P.P.P.P.P.E.G.E ^ ^ ^ ^ ^ ^ ^ ^ ^ ^ ^ ^ ^ ^ ^ ^ ^ ^ k ",
"/ / / / / / / / / / / / / / / / / / / / ~ ' P.P.P.P.P.P.P.P.P.P.P.P.P.P.P.P.P.P.P.P.E.G.^ / / / / / / / / / / / / / / / / / / k ",
"T T T T T T T T T T T T T T T T T T T T U &.P.P.P.P.P.P.P.P.P.P.P.P.P.P.P.P.P.P.P.P.E.F.Y T T T T T T T T T T T T T T T T T T k ",
"k k k k k k k k k k k k k k k k k k k k h #.S.D.S.S.S.S.S.S.S.S.S.S.S.S.S.S.S.S.S.S.J.B.j k k k k k k k k k k k k k k k k k k k ",
"K K K K K K K K K K K K K K K K K K K K F P J.J.J.J.J.J.J.J.J.J.J.J.J.J.J.J.J.J.J.J.T.S.G K K K K K K K K K K K K K K K K K K K ",
">.>.>.>.>.>.>.>.>.>.>.>.>.>.>.>.>.>.>.>.>.>.! ! ! ! ! ! ! ! ! ! ! ! ! ! ! ! ! ! ! ! ! ,.:.>.>.>.>.>.>.>.>.>.>.>.>.>.>.>.>.>.>.>.",
"Z.Z.Z.Z.Z.Z.Z.Z.Z.Z.Z.Z.Z.Z.Z.Z.Z.Z.Z.Z.H.N.K K K K K K K K K K K K K K K K K K K K D L A.Z.Z.Z.Z.Z.Z.Z.Z.Z.Z.Z.Z.Z.Z.Z.Z.Z.Z.Z.",
"N.N.N.N.N.N.N.N.N.N.N.N.N.N.N.N.N.N.N.N.Z.M.H H H H H H H H H H H H H H H H H H H H S J C.N.N.N.N.N.N.N.N.N.N.N.N.N.N.N.N.N.N.N.",
"n.n.n.n.n.n.n.n.n.n.n.n.n.n.n.n.n.n.n.n.m.@.H H H H H H H H H H H H H H H H H H H H S J n.n.n.n.n.n.n.n.n.n.n.n.n.n.n.n.n.n.n.n.",
"n.n.n.n.n.n.n.n.n.n.n.n.n.n.n.n.n.n.n.n.m.@.H H H H H H H H H H H H H H H H H H H H S J n.n.n.n.n.n.n.n.n.n.n.n.n.n.n.n.n.n.n.n.",
"n.n.n.n.n.n.n.n.n.n.n.n.n.n.n.n.n.n.n.n.m.@.H H H H H H H H H H H H H H H H H H H H S J n.n.n.n.n.n.n.n.n.n.n.n.n.n.n.n.n.n.n.n.",
"+.+.+.+.+.+.+.+.+.+.+.+.+.+.+.+.+.+.+.+.b.A n n n n n n n n n n n n n n n n n n n n b N +.+.+.+.+.+.+.+.+.+.+.+.+.+.+.+.+.+.+.+.",
"+.+.+.+.+.+.+.+.+.+.+.+.+.+.+.+.+.+.+.+.b.A c c c c c c c c c c c c c c c c c c c c g v b.+.+.+.+.+.+.+.+.+.+.+.+.+.+.+.+.+.+.+.",
"+.+.+.+.+.+.+.+.+.+.+.+.+.+.+.+.+.+.+.+.b.A s s s s s s s s s s s s s s s s s s s s p x b.+.+.+.+.+.+.+.+.+.+.+.+.+.+.+.+.+.+.+.",
"Z Z Z Z Z Z Z Z Z Z Z Z Z Z Z Z Z Z Z Z O.C f f f f f f f f f f f f f f f f f f f f a z O.Z Z Z Z Z Z Z Z Z Z Z Z Z Z Z Z Z Z Z ",
"| | | | | | | | | | | | | | | | | | | | ..{ f d f f f f f f f f f f f f f f f f f f a x ..| | | | | | | | | | | | | | | | | | | ",
"} } } } } } } } } } } } } } } } } } } }  .B f d f f f f f f f f f f f f f f f f f f a x } } } } } } } } } } } } } } } } } } } } ",
"M M M M M M M M M M M M M M M M M M M M V m f f f f f f f f f f f f f f f f f f f f a z M M M M M M M M M M M M M M M M M M M M ",
"q q q q q q q q q q q q q q q q q q q q q 3 f f f f f f f f f f f f f f f f f f f f a z q q q q q q q q q q q q q q q q q q q q ",
"9 9 9 9 9 9 9 9 9 9 9 9 9 9 9 9 9 9 9 9 0 7 f f f f f f f f f f f f f f f f f f f f d x 0 9 9 9 9 9 9 9 9 9 9 9 9 9 9 9 9 9 9 9 ",
"u u u u u u u u u u u u u u u u u u u u i y f d f f f f f f f f f f f f f f f f f f d x i u u u u u u u u u u u u u u u u u u u ",
"r r r r r r r r r r r r r r r r r r r r t 8 = * = = = = = = = = = = = = = = = = = = * > t r r r r r r r r r r r r r r r r r r r ",
"1 1 1 1 1 1 1 1 1 1 1 1 1 1 1 1 1 1 1 1 2 , % % % % % % % % % % % % % % % % % % % % % & 1 1 1 1 1 1 1 1 1 1 1 1 1 1 1 1 1 1 1 1 ",
"5 5 5 5 5 5 5 5 5 5 5 5 5 5 5 5 5 5 5 5 6 < % @ % % % % % % % % % % % % % % % % % % + & 5 5 5 5 5 5 5 5 5 5 5 5 5 5 5 5 5 5 5 5 ",
"w w w w w w w w w w w w w w w w w w w w e 4 O o O O O O O O O O O O O O O O O O O O . $ e w w w w w w w w w w w w w w w w w w w ",
"; ; ; ; ; ; ; ; ; ; ; ; ; ; ; ; ; ; ; ; : - X   X X X X X X X X X X X X X X X X X X   # : ; ; ; ; ; ; ; ; ; ; ; ; ; ; ; ; ; ; ; "
};
