/* XPM */
static char *result[] = {
/* columns rows colors chars-per-pixel */
"64 64 197 2 ",
"   c #040502",
".  c #060907",
"X  c #0C0C09",
"o  c #0A0509",
"O  c #100B0F",
"+  c #0E110C",
"@  c #161B0E",
"#  c #1C160B",
"$  c #0C0412",
"%  c #100411",
"&  c #120A12",
"*  c #170A18",
"=  c #1A051E",
"-  c #161C12",
";  c #191915",
":  c #231511",
">  c #29140E",
",  c #1C2313",
"<  c #1E231A",
"1  c #2C250A",
"2  c #382E0E",
"3  c #212514",
"4  c #242B19",
"5  c #242B17",
"6  c #3A251E",
"7  c #2A331D",
"8  c #27301C",
"9  c #3C3415",
"0  c #190526",
"q  c #061028",
"w  c #240627",
"e  c #220A24",
"r  c #27092A",
"t  c #2A092D",
"y  c #29062E",
"u  c #2A152B",
"i  c #361E27",
"p  c #230034",
"a  c #2C0431",
"s  c #2E0931",
"d  c #320D39",
"f  c #390E3F",
"g  c #281131",
"h  c #38123B",
"j  c #2A2626",
"k  c #2D3A21",
"l  c #283320",
"z  c #343A27",
"x  c #3A3A35",
"c  c #42260F",
"v  c #423716",
"b  c #523811",
"n  c #4A3131",
"m  c #7F3D3E",
"M  c #7E3E2E",
"N  c #3C4B2B",
"B  c #364527",
"V  c #3F5431",
"C  c #514013",
"Z  c #664F17",
"A  c #6B4C1A",
"S  c #6B531B",
"D  c #684E0B",
"F  c #4B4C26",
"G  c #44562E",
"H  c #4D572B",
"J  c #4C5B2E",
"K  c #47582F",
"L  c #505A2E",
"P  c #5C4F31",
"I  c #465731",
"U  c #475A33",
"Y  c #4B5D34",
"T  c #515D31",
"R  c #524631",
"E  c #674C26",
"W  c #715020",
"Q  c #665C3B",
"!  c #476037",
"~  c #4D6034",
"^  c #476138",
"/  c #4A6239",
"(  c #526335",
")  c #556638",
"_  c #576839",
"`  c #586939",
"'  c #586738",
"]  c #380C46",
"[  c #341243",
"{  c #4D064F",
"}  c #47134D",
"|  c #49164E",
" . c #4C0356",
".. c #4B1553",
"X. c #4E1953",
"o. c #54195C",
"O. c #5A1C5D",
"+. c #4D2A4E",
"@. c #582740",
"#. c #502757",
"$. c #583356",
"%. c #642855",
"&. c #56086A",
"*. c #5D1A61",
"=. c #5F1971",
"-. c #621D67",
";. c #6E007B",
":. c #761A73",
">. c #582E64",
",. c #632666",
"<. c #782D65",
"1. c #6D2275",
"2. c #6D217B",
"3. c #732574",
"4. c #713570",
"5. c #4C5049",
"6. c #646357",
"7. c #7C6A50",
"8. c #654D74",
"9. c #635C62",
"0. c #686866",
"q. c #7A6973",
"w. c #983F3B",
"e. c #814E1F",
"r. c #876219",
"t. c #824528",
"y. c #8B522A",
"u. c #8D6323",
"i. c #946835",
"p. c #BD712B",
"a. c #C47B2F",
"s. c #C07938",
"d. c #831A7F",
"f. c #90286B",
"g. c #9F4D5A",
"h. c #915550",
"j. c #857F7D",
"k. c #749A63",
"l. c #D1823F",
"z. c #DE973C",
"x. c #B78445",
"c. c #85827C",
"v. c #A0AD7E",
"b. c #E49D48",
"n. c #F7A750",
"m. c #FCB55B",
"M. c #D39069",
"N. c #F9BD61",
"B. c #FDC659",
"V. c #FEC762",
"C. c #FFD768",
"Z. c #6E1D80",
"A. c #791983",
"S. c #7F2782",
"D. c #8D1B8C",
"F. c #951399",
"G. c #8A288B",
"H. c #8B3185",
"J. c #8F2B95",
"K. c #9B3C99",
"L. c #BB1DBB",
"P. c #A91CAB",
"I. c #9F21A0",
"U. c #A828A9",
"Y. c #BC2CBA",
"T. c #AC30AE",
"R. c #C928C5",
"E. c #D326CF",
"W. c #C632C3",
"Q. c #DC2AD7",
"!. c #F32DEC",
"~. c #A5629D",
"^. c #8B8983",
"/. c #96948D",
"(. c #96968C",
"). c #A19E90",
"_. c #B4A080",
"`. c #ABA19D",
"'. c #B8AA9A",
"]. c #ADB78D",
"[. c #9C9CA5",
"{. c #A685A3",
"}. c #B7B2AA",
"|. c #B1AEA6",
" X c #C19CB6",
".X c #C2BEAB",
"XX c #FCDB8B",
"oX c #D3CFB5",
"OX c #E4D7B7",
"+X c #FFFFB8",
"@X c #B9BDD2",
"#X c #E395D4",
"$X c #FCABEB",
"%X c #DCD7CB",
"&X c #E5DED3",
"*X c #E9E4D8",
"=X c #FFFFFA",
/* pixels */
"_ _ _ _ _ _ _ _ _ _ _ _ _ _ _ _ _ _ _ _ ` _ / ^ / / / / / / / / / / / / / / / / / / ^ / ` ` _ ) _ ) ( ` ) ) ) _ ( _ _ ( ( ) ( ( ",
"_ _ _ _ _ _ _ _ _ _ _ _ _ _ _ _ _ _ _ _ _ _ / / / / / / / / / / / / / / / / / / / / / / ` ` ) _ ) _ _ _ ) ) ) ( _ ( ( _ ( ( / ( ",
"_ _ _ _ _ _ _ _ _ _ _ _ _ _ _ _ _ _ _ _ _ _ ^ ^ / / / / / / / / / / / / / / / / / / ^ ) ` ` ` ) ` ( _ ( _ ) _ _ ( ( _ ( _ ( ` ( ",
"_ _ _ _ _ _ _ _ _ _ _ _ _ _ _ _ _ _ _ _ _ _ ^ ^ / / / / / / / / / / / / / / / / / / ^ / ` ` _ _ _ _ _ ` ( ) _ ( ( _ ( ) ( ( ( ( ",
"_ _ _ _ _ _ _ _ _ _ _ _ _ _ _ _ _ _ _ _ ` _ / ^ / / / / / / / / / / / / / / / / ^ / ^ / ` ` ` ) _ ( _ ( _ _ ( _ ( ) _ ( ( ) ( ( ",
"_ _ _ _ _ _ _ _ _ _ _ _ _ _ _ _ _ _ _ _ ` ` / / / / / / / / / / / / / / / / / / / / ^ ) ` ` ( ) _ ` _ ` ) ) ) ) _ ( ) ) ( ( ( ( ",
"_ _ _ _ _ _ _ _ _ _ _ _ _ _ _ _ _ _ _ _ ` _ / ^ / / / / / / / / / / / / / / / / / / ^ ^ ` ( ) ` _ _ _ ( ) ) ) ) ( ) ) ( ( ( ) ( ",
"_ _ _ _ _ _ _ _ _ _ _ _ _ _ _ _ _ _ _ _ _ _ / / / / / / / / / / / / / / / / / / / ^ ^ ( ` ` ) ` ( ` _ ) ) ) ) ) ( ) ( _ ) ) ( ( ",
"_ _ _ _ _ _ _ _ _ _ _ _ _ _ _ _ _ _ _ _ _ _ / / / / / / / / / / / / / / / / / / / / / / ` ) ) ) ) ) ) ) ) ) ) ) ) ) ) ( ( ( ) ( ",
"_ _ _ _ _ _ _ _ _ _ _ _ _ _ _ _ _ _ _ _ _ _ / ^ / / / / / / / / / / / / / / / / / / / / ` ` ` ) ` ` ) ) ) _ ( _ ) ( _ ( ) ( ( ( ",
"_ _ _ _ _ _ _ _ _ _ _ _ _ _ _ _ _ _ _ _ _ _ ^ / / / / / / / / / / / / / / / / / / / / / ` ` ` ` ) ) ) ) ) ) ) ) ) ) ( ) ( ) ( ( ",
"_ _ _ _ _ _ _ ' _ _ _ _ _ _ _ _ _ _ _ _ _ _ ^ ^ / / / / / / / / / / / / / / / / / / / / _ _ ( ( ) ` ) _ ) ) ) _ ( ) _ ( ( ( ) ( ",
"_ _ _ _ _ _ _ ` _ _ _ _ _ _ _ _ _ _ _ _ _ _ / ^ / / / / / / / / / / / / / / / / / / ^ ^ ^ / ` ` ) ' ' ' ) ) ) ( ) ( ( ) ) ) ( ( ",
"_ _ _ _ _ _ _ _ _ _ _ _ _ _ ' ` _ _ _ _ _ _ / ^ / / / / / / / / / / / / / / / / / / ^ ^ ! k.( ` ` ' ) ) _ _ ) ) ( ) _ ( ( ( ) ( ",
"_ _ ` ' _ _ _ _ _ _ _ _ _ _ _ _ _ _ _ _ _ _ ^ ^ ^ ^ / / / / / / / / / / / / / / / / / k.^ ` ` ` ) _ ' ) ) ( ) ) ) ) ) ) ( ( ( ( ",
"_ _ _ _ _ _ _ _ _ _ _ _ _ _ _ _ _ _ _ _ _ _ V - + + B / / / / / / / / / / / / / / / / / / ` ` ( ( ` ` ( ) ) ) _ ) ( ( ) ) ) ( ( ",
"_ _ _ _ _ _ _ _ _ _ _ _ _ _ _ _ _ _ _ _ ` Y k j x j l V ^ / ^ ^ / / ^ / / / / / / / / ) ` _ _ ) ` ) ( ` ) ) ) ) ' ( ) ( ( ( ) ( ",
"_ _ _ _ _ _ _ _ _ _ _ _ _ ` _ _ _ _ _ _ ` l ; /.%X|.x < V / ^ ^ / / / ^ / / / / / / / / ` ` ) _ ` _ _ ` ) ) ) ) ' ) ) ( ) ( ( ( ",
"_ _ _ _ _ _ _ _ _ _ _ _ _ _ _ _ _ _ _ B z R /.*X=X%Xj.x l B k k B 7 N ^ / / / / / / / / ` _ ) ) ` ) ) ) ) ) ) ) ( ) ) ) ( ( ( ( ",
"` ` ` ` ` ` ` ` ` ` ` ` ` ` ` ` ` ` ` O ; ^.&X%XoX|.}.^.j . . $ X . @ V / ^ / / / / Y / ` _ ` ) ` ) ) ) ) ) ) ) ) ( ' ( ' ' ) ( ",
"_ _ _ _ _ _ _ _ ` ) _ _ ` ` ` ` ) ) ) . + 5.0.9.0.^.).j.+.{ :.D.:.>.h , B ~ / ! / / / / _ ) ) _ ) ) ` _ _ ( ( ) ) ) ) ( ( ( ( ~ ",
"/ / / / / / / / / / / / / / / / / / / ; + + + . < 5.0.9.4.I.E.!.Q.T.,.O @ G ~ ~ ) ) _ ) / ) / / / ~ / / ( / / / Y / Y / ~ ~ / ~ ",
"/ / ) / / / ) / / ) / ) / / / / / ) / N N G B X   ; 5.0.4.U.Q.!.Q.T.,.6 # @ - 4 Y _ _ ) / ) / ^ / / ^ / / / ^ ^ ^ / Y ^ / Y Y ! ",
"/ ) _ 5.) / Y ) / / ) 5.) ) / ) / / ) / Y K z ;   . R 7.,.A.P.L.P.A.%.S v % $ & l I ) ) / / ) / / / / / ) / ^ / ^ Y / ^ Y Y Y ! ",
"/ / / / / / / / / / / / / / / / / / / / ^ < + e p t A r.@.&.S.J.A.&.@.r.S t a e & 5 ( ) ~ ^ / / / / / / ) / ^ Y ^ / Y / Y Y Y / ",
"/ / / / / / / / / / / / / / / / / / / / V @ & [ ] s b D n 8.{.}.{.8.n S b d ] f * - Y ) ^ / / / / / / / Y / ^ / / / Y ^ / Y Y Y ",
"/ / / / / / / / / / / / / / / / / / / / I , * | ..s > v 6.(.oXoX.X(.6.9 > t ..} * , Y ) / / / / / / / / / / ^ / / / Y / / Y Y ^ ",
"/ / / / / / / / / / / / / / / / / / / / I , * | o.] % j (.'.Q v Q '.).j % f o.| * , ( ) ^ / / / / / / / ) Y ^ / ! Y Y / Y Y Y Y ",
"/ / / / / / Y / / / / / / / / / / / / / U , & ] O.-. .,.)._.F 1 F ].`.,. .*.O.] & , T ) / / ^ Y / / / / ) Y ^ ^ / Y / Y / Y Y / ",
") / / / ) / ) / / / ) / ) 5./ ( / / ) / U , o r X.d.Y.Y.q.k.].].].k.q.Y.L.S.X.w o , T ) / / / ) / / 5.) T / / / ^ / Y ^ Y Y 5.Y ",
"/ / / ) / / ( / / / / / / / / / ) / ) / I - $ 0 [ -.U.W.K.~.#X$X#X~.K.W.U.-.f w $ @ Y ) / / ( / / / / ) / / ^ / ^ / Y ^ ~ ~ / ^ ",
"/ / 5./ / / Y ^ / / / / / / / / 5./ / ^ V , X y s t X.G.R.Q.E.E.E.E.R.G.X.t t t & < T ) Y / / / / ^ / ^ / ^ / Y / / / ^ ~ ~ ~ ! ",
"/ ^ ^ Y ^ / / Y ^ / / / ^ Y / / ^ / / ^ Y N 4 % = y a { D.F.;.&.;.F.D.{ a y 0 % 4 G T ) Y ^ / / ^ ^ / Y / / / ^ ^ / / / Y ~ / ^ ",
"^ / / / / / ^ / / / ^ / ^ / / / / ^ / Y ^ / J , O y #.>.[ d +.$.+.s ] >.#.r O , J ) ) ) ^ ^ / / / / / ^ / / / Y / / Y Y Y 5.~ ! ",
"/ / / / ^ / / / Y ^ / / / / / / / ^ / / ^ / ) Y 7 + [.@Xq o _.OXv.o q @X[.+ 7 T ) ( ) ( ^ / / / / / ^ / / / / / Y / Y / / Y ~ ! ",
"Y Y Y ( Y Y / Y / Y Y T / Y Y Y Y Y ( Y Y / ) I 7 u '.OXP W XX+XXXW E OX'.u 8 J ) ) ) ( / Y T Y Y T / Y Y T Y / Y / Y / Y Y Y ! ",
"/ / Y ^ / Y / ^ / Y / / Y / Y / / / Y / Y / I @ g 3.g.s.b.m.m.N.m.n.b.s.g.3.g - G ) ) ) ^ / / / / / / ~ ^ ~ / Y / Y / / Y Y Y Y ",
"/ Y ^ ^ / / Y ^ Y / ^ Y / / ^ ^ / Y Y ^ ^ N < p =.J.f.y.s.z.a.p.a.b.l.y.f.J.=.p < F ) / Y ^ Y ^ ^ Y / / ^ ^ Y / ^ / Y / Y / Y / ",
"~ 5.Y Y Y T Y Y / / Y Y Y Y Y Y Y Y Y U G : i 4.H.2.A.:.w.M W M w.W m 3.Z.3.H.4.i 5 G Y Y Y Y Y Y Y 5.~ Y Y Y / Y Y Y Y / Y Y ^ ",
"( Y Y Y Y Y Y ( / ~ 5.Y Y / Y Y / Y Y < 3 E x.M.h.g ] -.<.<.<.<.<.<.<.=.] t h.M.x.E 3 < / Y Y Y Y Y ~ ~ / Y Y Y 5.Y Y Y Y Y Y Y ",
"/ ~ ! Y ! ! Y ^ ! ~ J ! ! ! ! ~ Y Y / . # x.C.V.u.  = *.2.2.2.1.:.2.2.o.0   y.B.C.x.#   Y ! Y ^ ! ! ~ U ! ! ~ ! / / ~ ! ~ Y ^ U ",
"! ! ! ~ ! Y ^ Y ! ! ! ! ! J Y ! Y ^ Y . # s.V.n.e.  0 o.o.o.o.o.o.X.o.O.0   e.n.V.x.# . ^ Y ^ Y Y ! ! ! ! ! ! ! ! ! ! U Y ^ ^ ^ ",
"Y Y Y I Y I Y Y ~ ~ ! J U Y Y Y Y U Y 4 < E i.y.c   0 } ......X.......} 0   c y.i.E 5 7 Y U Y Y Y Y Y Y J Y J ~ ~ Y Y Y U Y Y Y ",
"/ ~ Y ( ( / ~ Y ~ ~ ~ ~ ~ ~ ~ ~ / / T / K , X . .   0 d } ..........} f =     X . 3 K ~ ~ ~ ~ J ~ ~ ~ ~ ~ T ~ ~ ~ ~ ~ ~ / ~ ~ ~ ",
"( ( ( ( ( ( ( ( ( ( ( ( ( ( ( ( ( ( ( ( ( N 7 B , . : 6 n i e = e i n 6 #   ; k 7 N U Y ( ( ( ( ( ( ( ( ( ~ ( ( ( ( ( ( ( ( ( ( ",
"( J ( ( ( ( ~ ( J ( ( ( ( ( ( ( ( ( T ( ( ~ U Y k   1 b b 1       1 C C 1   k Y Y Y U Y ( ( ( ( ~ ( ( ( ( ( ( ~ ( ( T ( ( ( ( ( ",
"( ( T ( ( ~ ( T ( ( ( ( J ( ( J J ( ( ( ~ T Y U 7   2 Z Z 2 .   . 2 D Z 2   8 Y U Y U Y ( ( ( ( ( ( T ~ ( ( J ( J ( ( ( ~ T J ( ",
"( J ( ( T T ( ~ ~ ( ~ J ( ( ( ( J ( T ( ( Y Y Y 7 X 9 S S 2 +   X v W S 9 o k U Y Y U Y ( Y J ( T ~ T ( ~ ( ( ( J ( T ( ( ( T ~ ",
"( J ( ( J ( ( ( J ( ( ~ ( J ( ( ( J ( J ( ( J ! U ~ U Y Y I Y Y Y Y Y Y Y Y Y Y U ! J ~ J ( ( ( ( ( ( ( ( J ( ( ( J ( ( J ( J ( ",
"J ( ( J ( ( J ( ( J ( J J ( ( J ( ~ ~ ( ( J ! U J U Y U Y Y Y I Y I Y I U Y I Y U J U ! ( ( J ( ~ J ( J ( J J ( J ( J ( ( ~ ( J ",
"J ( ~ ( ( J ( J J J ( ( J ( ~ J J ( J ( ( ( J J I I U U Y I I I U I I Y U I I I J U G J ( J ~ J ( J J ( ( ( J ( ( ~ ( ~ J ( ( J ",
"( ~ ( J ( J ( ( ( ( ~ ~ ( J ( ( ( J ( ( ~ J G U I U I I I I I G K K I I I I I I K U G J ( ( ( T J ( ( J J ( ( ( J ( J ( ( ( J ( ",
"J ~ L ( J ( ( J J ( J ( ( J J ( J J ( J T T U I I I I I Y J I U K K U K I I I J U U I J ~ ~ ~ T ~ ~ ~ ~ J ( ~ J ( J J ( J ( J ( ",
"L ~ ( L L L T T T T L L J ( L ( T T ( T T Y K I Y I I I U I I U K U U U I G I Y G U I I T T L T T T T T T L T T L L ( L J ( ( J ",
"T J T ~ ( ~ J J T ( J ( J ( J ( ( T T T T T K I J I I I G I I J U K I K I U I U I I I I ( T ( J ~ T T ( L ~ L ( ( J J ( ( J L L ",
"J ~ ~ J J J J ( J J ( J J J J J J J J J J ! U U K U U G I I I Y I I I U I U K J Y I I I J J J J J J J J J ~ J J ( J ~ J J ~ J J ",
"J J J J J J J J J J J J J J J J T J J J J ! K I K K U I I G U K K U K U I U I K ! K K K J J J J J J J J J J ~ J J J J J J J J J ",
"J J ( L J J ( J J J T J ( J J J J H J T J J K K K U I I I U K K I I U K I K I U G U G ! J J T J J J ( L J J J J J J ( L J J J J ",
"( J T L L L L L T L T L L L ( J T L L T T T K J K K U U I I K K K K K K K K I U J G G G T L T L J L L L ( L L L L L T L T L T T ",
"L H L L L J L H J L L L L L L H L T H H L H K G I I G K K J G G I I I I I G I I G J G G J T L L L L L L L L H H J L L L L L L J ",
"J H J J H J J J J J J J J J J J J J J J J K G G G G I G G G G G G G G G G G G G G G G G J J J J J J J J J J J J J J J J J J J J ",
"J J J J J H J J J J H J J J J H H H J J J H G G G G G G G G G G G G G G G I G G G G G G H J J H J J J J H H J J J J J H J J J H ",
"L L H H H L L L H H L L H L H L H L L L H H G G G G G G G G G G G G G G G G G G G G G H H H H L L L H L H L L L H H L L L L H H ",
"H H H H H H H H H H H H H H H H H H H H H H G N G V G G G G N G G G N G G G G G G G G J H H H H H H H H H H H H H H H H H H H H "
};
