/* XPM */
static char *result[] = {
/* columns rows colors chars-per-pixel */
"64 64 220 2 ",
"   c #0B030D",
".  c #0A0A0D",
"X  c #0D0C14",
"o  c #140D13",
"O  c #0F1116",
"+  c #151315",
"@  c #1B1514",
"#  c #1B1A17",
"$  c #141519",
"%  c #151B1B",
"&  c #1C1C1A",
"*  c #2E1B0E",
"=  c #25160F",
"-  c #231C15",
";  c #201E1A",
":  c #271A11",
">  c #381F0D",
",  c #1C221D",
"<  c #1C281F",
"1  c #3A230D",
"2  c #37210E",
"3  c #2B2315",
"4  c #22241C",
"5  c #252A1E",
"6  c #2B2B1C",
"7  c #282518",
"8  c #312513",
"9  c #3A2A12",
"0  c #332D1A",
"q  c #382912",
"w  c #2D311F",
"e  c #3B3217",
"r  c #111D20",
"t  c #152321",
"y  c #1A2421",
"u  c #162A25",
"i  c #1A2B24",
"p  c #152D29",
"a  c #192F28",
"s  c #1C3126",
"d  c #1C342B",
"f  c #1D3A2D",
"g  c #173029",
"h  c #123733",
"j  c #153932",
"k  c #1A3C32",
"l  c #252C21",
"z  c #2A2E21",
"x  c #233123",
"c  c #2D3423",
"v  c #2E3926",
"b  c #233B2B",
"n  c #293D28",
"m  c #303623",
"M  c #343D25",
"N  c #393E25",
"B  c #323E28",
"V  c #3D3721",
"C  c #213F30",
"Z  c #442B0D",
"A  c #4C2D0B",
"S  c #43260C",
"D  c #4C320E",
"F  c #54350C",
"G  c #5B380B",
"H  c #463615",
"J  c #553A12",
"K  c #4A2E0D",
"L  c #613C0A",
"P  c #473F24",
"I  c #1D4235",
"U  c #22442E",
"Y  c #28452A",
"T  c #2E4227",
"R  c #364126",
"E  c #394226",
"W  c #354129",
"Q  c #3A4529",
"!  c #3C4B2D",
"~  c #3A4D29",
"^  c #3E502F",
"/  c #214433",
"(  c #254C35",
")  c #284F34",
"_  c #254E39",
"`  c #3D4E30",
"'  c #324D31",
"]  c #2A5335",
"[  c #295539",
"{  c #2D5C3A",
"}  c #295537",
"|  c #3E5131",
" . c #315E39",
".. c #355C35",
"X. c #2F623C",
"o. c #2F6C3E",
"O. c #31633B",
"+. c #336C3E",
"@. c #366739",
"#. c #34713F",
"$. c #3C723F",
"%. c #5C4217",
"&. c #4F421F",
"*. c #68430C",
"=. c #674915",
"-. c #745315",
";. c #795B1B",
":. c #6E5017",
">. c #7E611E",
",. c #424D2C",
"<. c #474629",
"1. c #43542C",
"2. c #4D572B",
"3. c #4C5B2E",
"4. c #425127",
"5. c #505A2E",
"6. c #5D512B",
"7. c #404D30",
"8. c #435432",
"9. c #495531",
"0. c #465D36",
"q. c #4C5E35",
"w. c #4A5E38",
"e. c #515D31",
"r. c #534827",
"t. c #69572A",
"y. c #795F24",
"u. c #476037",
"i. c #4D6034",
"p. c #466239",
"a. c #4A6139",
"s. c #426D3E",
"d. c #526335",
"f. c #556638",
"g. c #576839",
"h. c #586939",
"j. c #567737",
"k. c #44793F",
"l. c #766634",
"z. c #696E32",
"x. c #346C41",
"c. c #3C6C41",
"v. c #347341",
"b. c #3A7543",
"n. c #357A44",
"m. c #3A7B44",
"M. c #457B42",
"N. c #4A7D42",
"B. c #547E40",
"V. c #82651E",
"C. c #856925",
"Z. c #95782B",
"A. c #8F7434",
"S. c #55803E",
"D. c #668A3A",
"F. c #769B3C",
"G. c #6E983F",
"H. c #398247",
"J. c #3B8549",
"K. c #378348",
"L. c #498648",
"P. c #538644",
"I. c #548945",
"U. c #5B8D46",
"Y. c #5B8E48",
"T. c #528B4A",
"R. c #5E9147",
"E. c #54934C",
"W. c #5C9249",
"Q. c #5C994D",
"!. c #55994F",
"~. c #599D51",
"^. c #4E954D",
"/. c #648E41",
"(. c #629447",
"). c #679946",
"_. c #6B9D47",
"`. c #639549",
"'. c #649A4B",
"]. c #699E49",
"[. c #5AA051",
"{. c #6BA24B",
"}. c #68A44E",
"|. c #72A346",
" X c #7CAD47",
".X c #75A949",
"XX c #7AAE49",
"oX c #71A548",
"OX c #7EB047",
"+X c #7DB24A",
"@X c #63A251",
"#X c #78BB55",
"$X c #7DC056",
"%X c #9C813B",
"&X c #A88A39",
"*X c #B4953F",
"=X c #81B54A",
"-X c #85BC4C",
";X c #86B646",
":X c #8BB643",
">X c #8BC34E",
",X c #97CA4A",
"<X c #88C552",
"1X c #90CF53",
"2X c #93D255",
"3X c #9CDB54",
"4X c #94D859",
"5X c #92D356",
"6X c #A3DB50",
"7X c #A9DE4C",
"8X c #9BE25D",
"9X c #ACE64F",
"0X c #B3E64D",
"qX c #A5E255",
"wX c #B2EB52",
"eX c #B8F456",
"rX c #C8FD57",
"tX c #D5FF5B",
"yX c #D0FD55",
"uX c #E3FF5D",
/* pixels */
"g.g.g.g.g.g.g.g.g.g.g.g.g.g.g.g.g.g.g.g.g.g.w.M.w.w.w.w.a.a.a.a.a.a.u.a.a.a.a.a.w.w.w.a.h.g.f.h.d.d.g.g.f.w.g.f.d.d.f.d.d.d.d.d.",
"g.g.g.g.g.g.g.g.g.g.g.g.g.g.g.g.g.g.g.g.g.g.w.w.w.w.` B < $ + $ $ & l B ` 0.u.a.q.M.w.a.g.g.h.g.g.h.d.h.f.f.f.f.d.g.f.d.d.f.d.d.",
"g.g.g.g.g.g.g.g.g.g.g.g.g.g.g.g.g.g.g.g.g.g.w.w.w.w.' m 4 # # , # # 4 M ` 0.a.a.a.a.a.a.h.g.g.d.d.h.g.h.f.f.f.f.f.d.d.f.f.d.d.d.",
"g.g.g.g.g.g.g.g.g.g.g.g.g.g.g.g.g.g.g.g.g.g.w.w.0.8.B z w w ~ ~ M 4 4 x B | 0.0.a.a.p.f.h.g.g.h.g.g.g.d.f.f.f.f.d.g.g.d.d.d.d.d.",
"g.g.g.g.g.g.g.g.g.g.g.g.g.g.g.g.g.g.g.g.f.f.M.| ' v 5 5 E z.F.F.D.4.6 4 l B ` 8.p.a.p.a.g.h.d.h.h.f.d.g.d.g.f.f.f.d.d.f.d.d.d.d.",
"g.g.g.g.g.g.g.g.g.g.g.g.g.g.g.g.g.g.g.g.B.f.9.` b y @ m j.>X9X9X,XF.4.4 $ y v ` w.a.a.a.g.g.g.g.d.h.h.g.f.g.f.f.d.f.f.d.d.f.d.d.",
"g.g.g.g.g.g.g.g.g.g.g.g.g.g.g.g.g.g.g.f.e.f.8.B l X r 5.:X0XrXtXrX,XD.W $ O y B | a.w.w.g.h.h.d.g.g.h.d.f.f.d.f.f.d.f.f.f.d.d.d.",
"g.g.g.g.g.g.g.g.g.g.g.g.g.g.g.g.g.g.f.f.9.9.W z O r ! _.7XyXuXuXtXeX>Xj.l X $ l W 8.8.w.f.h.f.g.h.d.f.h.f.f.f.f.f.f.d.f.d.d.d.d.",
"g.g.g.g.g.g.g.g.g.g.g.g.g.g.g.g.g.g.f.9.7.N z r r b j.<XeXtXuXuXtXrX3X|.p.a % y c B ` 8.f.g.g.g.g.d.f.g.f.f.f.f.d.f.d.f.d.f.e.f.",
"g.g.g.g.g.g.g.g.g.g.g.g.g.g.g.g.g.g.w.9.N l r r b M.}.2XwXrXyXyXrXeX6X<XQ...a & r l v ` d.g.d.g.g.g.f.f.d.f.f.f.f.d.f.d.d.d.d.d.",
"g.g.g.g.g.g.g.g.g.g.g.g.g.g.g.g.g.g.e.,.z + o y ..'.#X5X6X7X0X0X0X9X8X2X#XT.' , o $ l Q e.h.h.h.f.f.f.f.f.f.f.f.f.d.f.f.d.d.d.d.",
"g.g.g.g.g.g.g.g.g.g.g.g.g.g.g.g.g.h.e.7.l     l B.#X5X5X,X,X,X,X3X6X8X8X4X}.p.<     l W e.h.d.d.f.f.f.f.f.f.f.f.d.f.d.f.d.f.d.d.",
"g.g.g.g.g.g.g.g.h.f.h.h.g.g.g.g.g.g.d.Q , .   v /.<X4X5X>X:X:X:X:X2X3X8X4X#Xj.4   . , Q d.h.h.h.f.f.f.f.f.d.g.f.f.d.f.f.d.d.d.d.",
"g.g.g.g.g.g.g.g.h.h.f.f.g.g.g.g.g.f.e.Q 4 . . R /.-X5X1X-X=X X;X:X>X2X3X4X+Xj.w   . , W e.h.d.h.f.h.h.f.f.f.f.f.f.f.d.d.f.d.d.d.",
"g.g.g.g.g.g.g.g.f.g.h.h.h.h.g.g.f.f.3.w , O $ ~ /.#X<X<X-X=X X=X-X-X>X2X<XXXj.T $ X , M 9.f.f.h.f.f.f.f.f.a.f.f.d.f.d.f.d.d.d.d.",
"g.g.g.g.g.g.g.g.g.g.f.h.f.h.h.f.q.2.Q w , % l ..U..X-X-X=X X X X=X=X-X>X-X.XP.' u $ # x Q 9.q.d.h.f.h.f.f.f.f.f.f.d.f.f.d.f.d.d.",
"g.g.g.g.g.g.g.g.g.g.g.g.g.g.B.9.<.N z ; r a ) M.I.{.XX+X+X X X=X=X=X=X+X+X].P.@.( u % 4 c N 7.e.f.f.h.f.f.f.f.g.d.d.d.f.d.d.f.d.",
"g.g.g.g.g.g.g.g.g.g.g.g.g.g.f.8.N z ; r l _ v.L.E.'.{..X.X=X=X X XXX+X.X{.Q.E.L.+.U t % ; z Q 9.d.f.f.f.f.f.d.g.d.g.f.f.d.d.d.d.",
"g.g.g.g.g.g.g.g.g.g.g.f.d.e.q.<.z & o r I x.L.!.E.W.`._.|. X X XXX.XoX_.Q.Q.!.^.L.X.b % + ; z Q 9.e.d.d.d.f.f.f.f.d.f.d.d.d.d.d.",
"g.h.h.h.h.h.h.h.g.f.g.e.q.9.N m ; o $ C X.L.!.[.Q.E.Y.)._.|.|.|.|._.).(.R.Q.@X~.E.m.[ i $ + ; c Q 9.q.e.d.d.f.f.d.f.g.d.f.d.d.d.",
"g.g.f.B.g.g.g.g.h.g.f.w.7.N z ; $ $ u ] m.!.'.@XQ.Y.Y.Y.(.(.).)._.(.(.Y.`.'.@X@X[.^.b.( t O % l m N 7.q.e.d.f.f.d.f.f.d.d.f.d.d.",
"w.w.w.w.a.a.a.a.w.w.w.7.B l & $ $ r / c.T.Q.@X'.'.W.Y.U.U.Y.R.Y.Y.U.U.(.`.'.}.}.'.E.N.O.f r $ $ r z B 8.w.w.a.a.a.a.i.w.w.w.q.w.",
"w.f.f.w.d.w.a.f.w.w.w.7.m l + O r h { M.T.W.'.'.'.`.R.Y.U.U.Y.U.U.U.Y.(.`.'.}.'.Q.E.T.M._ p % + @ 4 v ` w.w.w.u.u.a.a.u.i.q.q.0.",
"w.f.w.f.w.e.M.a.w.w.w.7.m @ o $ u ( x.M.L.T.U.R.`.`.).(.Y.Y.Y.Y.Y.Y.`.).'.`.`.W.Y.T.L.b.X.f < $ o ; c ` 9.w.a.a.a.q.q.a.w.w.q.u.",
"w.w.M.w.w.w.w.w.w.w.w.` c # o & b { v.n.H.M.L.I.R.(.).`.(.Y.Y.Y.Y.`.`.`.`.`.I.P.L.L.H.m.v.) s # o & z ` 0.w.u.u.u.a.a.w.i.w.q.u.",
"w.w.w.w.f.w.M.w.w.w.w.` z # o y ) +.n.n.n.v.s.k.I.(.(.(.R./.Y.Y.Y.Y.(.`.`.U.B.N.m.m.m.J.n.X.b & o ; c ` q.0.a.a.a.w.q.u.q.q.e.u.",
"a.a.w.f.w.w.w.w.w.0.w.! m ; o l { n.n.n.n.o.+.$.N.P.I.I.P.P.I.I.P.I.Y.Y.P.P.M.c.#.n.K.J.J.+.Y , + ; m ` 9.w.u.a.a.a.q.u.a.q.w.w.",
"a.a.a.w.w.M.w.w.w.w.0.! z # o y ..m.K.K.n.#.@.+.s.M.N.N.L.M.k.k.M.N.N.N.N.k.$.+.+.n.K.J.J.+.Y , + ; c 7.w.w.a.a.u.i.w.a.q.q.q.u.",
"a.a.w.w.w.a.w.w.p.w.w.` z r o l ..n.n.K.n.x.o.X.+.$.$.$.$.b.#.$.$.$.$.$.$.$.+.@.x.v.K.J.J.+.U & + ; v ` q.w.w.w.w.d.i.w.i.q.w.u.",
"g.w.f.w.w.f.M.w.w.w.w.7.m ; o l ] #.m.m.n.v.+.+.+.+.+.#.+.+.o.o.+.o.#.#.+.+.+.+.v.n.K.J.m.@.b & o ; v 7.9.0.a.a.a.a.w.u.w.q.e.u.",
"a.w.w.w.w.w.g.w.w.w.w.7.m ; o & Y X.v.m.m.n.v.#.+.#.+.o.o.o.o.o.o.o.o.o.+.#.v.v.m.m.m.m.v.] l % o 4 m 7.0.0.u.a.u.a.a.u.i.q.w.w.",
"w.a.M.w.a.a.w.a.w.w.0.' c ; o $ x ) X.v.m.n.m.b.v.#.#.o.o.#.x.v.#.x.#.o.v.v.m.m.m.m.m.x.{ U l $ + 4 m ` 0.0.a.a.a.q.q.w.a.q.q.u.",
"a.u.a.p.u.a.a.p.w.0.0.` m ; o $ i I [ x.v.b.m.b.#.#.#.#.#.#.#.#.#.#.#.#.#.#.$.H.m.b.x.x.( d y + @ 4 v 7.0.0.w.a.p.a.w.a.q.q.w.u.",
"a.a.a.w.a.a.a.a.a.0.8.` M ; o $ y f _ [ O.$.#.b.$.+.+.+.+.+.+.+.+.o.@.+.#.#.$.#.v.v.x.[ / g r $ + 4 m ` 0.0.w.0.a.w.w.u.i.w.q.w.",
"u.a.a.a.a.u.a.a.a.0.0.! c & o % i k _ [ { X.@.O.O.O.X.{ { ..O.{ O. . .{ O.O.O.@.X.X.{ [ ( d r @ @ r c ` 0.0.a.a.a.a.w.a.q.i.q.u.",
"w.w.d.e.w.w.e.i.w.0.0.,.c - $ % a k / _ [ ] ] ] ] ] ) ) ) ) ) ) ( ) ) ) ) ) ] } [ [ [ _ ( d y r + ; m 7.9.q.a.e.w.e.d.0.i.q.q.w.",
"a.u.q.a.a.a.w.q.q.w.0.! m ; $ & i C / _ _ ( / / U / / / I I I I / / / I U U I ( _ _ _ _ I f y & @ 4 v ` 8.w.w.u.a.i.w.a.w.q.q.a.",
"w.a.u.u.w.a.u.u.w.0.0.! m 5 # & < s C / / / / C I f k k k k f k j k k k f I I / / / / / b s , % # l B 8.0.0.w.w.w.u.u.a.w.q.w.w.",
"w.w.q.q.w.a.q.q.q.q.w.8.W m 4 & , i x k / / I I k k j j h h h h h j j j j k I I / / / f s i , & 4 c N 7.0.w.w.w.w.q.w.q.q.q.q.u.",
"e.e.w.e.e.w.e.w.q.q.q.9.! B z 4 ; , i d k I I I I k j j h h h h h h j j I I I ( / / f s y & , 4 z B 7.9.q.e.w.e.q.q.i.w.e.q.q.u.",
"a.w.q.0.i.u.q.u.u.0.0.8.^ Q v 5 4 # & u d k I I I I j j j k j f j f j k k I I I I f s < % # 4 l v W ! 0.u.i.u.u.u.i.w.i.u.q.i.0.",
"0.u.0.0.0.u.u.0.0.0.0.8.^ ' v c 5 # & r i g k j k f f f f b Y Y b b f f k f I j g s t % # & 7 c W ~ | 8.1.1.u.u.u.w.u.0.0.u.u.u.",
"w.w.q.q.q.q.q.q.w.,.7.1.! ! W M z 7 ; & r u p p s s s w w w N w w c c x s d p p p t , , , 7 w M W Q ! 8.1.| i.u.w.q.q.q.q.q.0.q.",
"d.q.q.d.q.d.i.q.d.! ,.,.,.Q Q N m w l 4 , , r t , 4 6 e e H J H H H e 6 4 , < , , % , , 6 c m Q Q ! ,.Q 1.! i.e.q.d.q.3.q.d.i.q.",
"d.d.d.d.e.e.d.d.d.Q Q Q Q Q ! Q Q N m 5 , $ $ # : * 9 Z D F G G G F K 9 2 3 # # $ $ , 5 m R Q Q Q Q Q Q 4.E e.d.d.d.d.d.e.e.d.d.",
"e.d.d.i.d.d.d.i.d.R ~ E E E ~ Q Q Q N c < @ = = * 1 Z A G G L L *.G F A S 2 * = @ # 4 x R Q Q ,.Q W E Q ~ R e.d.e.d.i.d.d.d.d.i.",
"e.d.i.i.e.e.e.i.d.N W N N E Q ! Q Q R c 7 - = * 1 S F G L *.*.*.*.*.G G A S > * = @ 4 c R Q ! Q Q R N R R R 3.d.e.d.i.i.e.e.d.e.",
"d.e.d.e.d.d.i.d.i.N Q R N R Q Q ! ! W c 7 : * > S D G *.*.-.-.;.:.:.*.L F A S 2 * 4 7 w R Q ,.Q Q R N W ~ R d.i.d.e.d.e.d.d.i.i.",
"i.d.d.3.i.d.e.e.i.~ E E R E E E Q Q R c 6 3 8 9 A F *.:.-.V.V.V.V.;.-.=.G F Z q 3 3 6 c N Q Q Q Q R R E Q R e.d.i.d.d.d.3.e.d.e.",
"i.3.3.d.3.3.e.d.3.R ~ R R R E E Q Q R m w 0 8 9 Z J =.;.C.Z.Z.Z.Z.C.C.:.=.D Z q 8 6 w c N Q ~ Q Q R E R Q R e.i.d.3.i.i.d.e.d.i.",
"d.i.j.3.3.j.3.d.e.R R R R R E E Q Q R M m w 6 8 9 H %.>.A.&X*X&X&XZ.C.:.J 9 8 8 6 w c M R E Q E Q R N R ~ R e.d.3.i.e.i.d.3.3.d.",
"3.e.e.3.d.3.d.d.e.~ ~ R E R R ~ W E E R R c w 4 3 9 &.y.A.&X*X*X*XZ.l.=.H 8 7 5 z c v M E E Q W R R R E E R i.i.d.e.e.i.3.i.d.3.",
"d.3.i.3.d.3.e.3.3.E E E R R E R E R Q E R T w < , 3 H t.C.%X&X&XZ.A.t.r.0 - 4 4 c v B W E E E E E R M R E R 5.e.3.3.d.3.d.3.3.d.",
"d.e.e.e.e.d.3.d.e.N E Q R E E E E E E Q ~ R v 5 4 4 6 <.6.l.l.l.l.t.r.V 7 4 4 w v M W R E E E E N E N N R N d.5.j.e.e.e.3.d.e.e.",
"3.e.e.e.3.d.3.e.e.N E w M N N E E E E Q E E T w w 5 5 c M P <.<.<.P N m z l x c v W R W E E E E E N N M E N q.q.5.5.3.d.3.d.e.e.",
"3.3.3.i.3.3.3.e.3.R E M M M R R R R E R Q R M w c c c c c v v B B m v m c v v M M M B R E R R R N M M R R M 3.3.3.3.3.i.3.3.3.3.",
"3.3.3.i.3.3.i.3.3.R E E R w E R R R R M M M M T M v v v w n n c v v v v v v M M M M M M R M R R R M M M R R 3.3.3.3.3.3.3.3.3.3.",
"e.3.3.3.3.3.3.5.3.~ E ,.E E R R M R M M N R M M M M M v n v w v v v v v B B M M M v M M M M M M M M E <.4.4.3.3.3.3.e.3.3.3.3.e.",
"5.5.e.5.e.5.5.5.5.,.,.<.<.E e E N e N N N N M M B M R v M v w R v v B B T M B M T M R M N N e N N E E 4.4.4.5.5.e.e.5.5.5.e.e.3.",
"5.5.5.5.5.5.5.3.5.2.2.,.~ E Q R N N N N R N M M v R v M M T T M B v M M M M W M R R w M N M R R w <.<.4.2.2.5.2.e.5.5.5.5.5.5.e.",
"3.3.3.3.2.3.3.3.2.2.2.4.4.E E R N R R N E T R R R T R M M T M M M T R R M R v R R R T M R R E w E E 4.4.4.3.3.3.3.3.3.3.3.3.3.3.",
"3.3.3.3.3.3.2.3.3.2.2.2.,.E E E E E E E E R R T R R R R ~ T M T T R R T W R R R R T M M E E E E ~ 4.<.4.2.2.3.3.3.3.2.2.3.3.3.3.",
"2.5.2.5.5.2.5.2.2.3.5.5.5.5.2.2.5.5.5.5.2.2.1.1.1.1.| 1.1.1.1.1.2.^ 1.1.1.1.| 1.1.1.^ 2.2.2.5.5.5.5.5.5.5.5.5.5.2.5.5.5.5.5.2.2.",
"2.2.2.2.2.2.2.2.2.2.2.2.2.2.2.2.2.2.2.2.2.2.1.^ 1.1.1.^ 1.1.| 1.4.4.1.1.^ 1.1.^ 1.1.4.2.2.2.2.2.2.2.2.2.2.2.2.2.2.2.2.2.2.2.2.2."
};
